{
  "asset": {
    "version": "2.0",
    "generator": "Sketchup glTF Exporter v1.2.6 by Centaur"
  },
  "scene": 0,
  "scenes": [
    {
      "nodes": [
        0
      ]
    }
  ],
  "samplers": [
    {
    }
  ],
  "nodes": [
    {
      "name": "root",
      "children": [
        1
      ]
    },
    {
      "name": "그룹#7",
      "children": [
        2,
        7
      ],
      "mesh": 5
    },
    {
      "children": [
        3,
        6
      ]
    },
    {
      "children": [
        4,
        5
      ],
      "mesh": 2
    },
    {
      "mesh": 0
    },
    {
      "mesh": 1
    },
    {
      "mesh": 3
    },
    {
      "mesh": 4
    }
  ],
  "materials": [
    {
      "pbrMetallicRoughness": {
        "baseColorFactor": [
          0.2176,
          0.2176,
          0.2176,
          1.0
        ],
        "metallicFactor": 0.1,
        "roughnessFactor": 0.9
      },
      "name": "default material",
      "doubleSided": true
    },
    {
      "pbrMetallicRoughness": {
        "baseColorFactor": [
          1.0,
          0.7083,
          0.2801,
          0.5
        ],
        "metallicFactor": 0.1,
        "roughnessFactor": 0.9
      },
      "name": "Material1",
      "doubleSided": true,
      "alphaMode": "BLEND"
    },
    {
      "pbrMetallicRoughness": {
        "baseColorFactor": [
          1.0,
          0.2158,
          0.0,
          1.0
        ],
        "metallicFactor": 0.1,
        "roughnessFactor": 0.9
      },
      "name": "Color C05"
    }
  ],
  "meshes": [
    {
      "primitives": [
        {
          "attributes": {
            "POSITION": 0,
            "NORMAL": 1
          },
          "indices": 2,
          "mode": 4,
          "material": 0
        }
      ]
    },
    {
      "primitives": [
        {
          "attributes": {
            "POSITION": 0,
            "NORMAL": 1
          },
          "indices": 3,
          "mode": 4,
          "material": 0
        }
      ]
    },
    {
      "primitives": [
        {
          "attributes": {
            "POSITION": 0,
            "NORMAL": 1
          },
          "indices": 4,
          "mode": 4,
          "material": 1
        }
      ]
    },
    {
      "primitives": [
        {
          "attributes": {
            "POSITION": 0,
            "NORMAL": 1
          },
          "indices": 5,
          "mode": 4,
          "material": 2
        }
      ]
    },
    {
      "primitives": [
        {
          "attributes": {
            "POSITION": 0,
            "NORMAL": 1
          },
          "indices": 6,
          "mode": 4,
          "material": 1
        }
      ]
    },
    {
      "primitives": [
        {
          "attributes": {
            "POSITION": 0,
            "NORMAL": 1
          },
          "indices": 7,
          "mode": 4,
          "material": 0
        }
      ]
    }
  ],
  "accessors": [
    {
      "bufferView": 0,
      "componentType": 5126,
      "count": 16957,
      "type": "VEC3",
      "min": [
        -0.8793702671882452,
        -1.7559999999999998,
        -0.879336803277085
      ],
      "max": [
        0.8793702671882452,
        1.4041971047825792,
        0.879336803277004
      ]
    },
    {
      "bufferView": 1,
      "componentType": 5126,
      "count": 16957,
      "type": "VEC3",
      "min": [
        -1.0,
        -1.0,
        -0.9999912652551477
      ],
      "max": [
        1.0,
        1.0,
        0.9999912652551479
      ]
    },
    {
      "bufferView": 2,
      "componentType": 5123,
      "count": 588,
      "type": "SCALAR"
    },
    {
      "bufferView": 2,
      "componentType": 5123,
      "count": 588,
      "type": "SCALAR",
      "byteOffset": 1176
    },
    {
      "bufferView": 2,
      "componentType": 5123,
      "count": 26700,
      "type": "SCALAR",
      "byteOffset": 2352
    },
    {
      "bufferView": 2,
      "componentType": 5123,
      "count": 2352,
      "type": "SCALAR",
      "byteOffset": 55752
    },
    {
      "bufferView": 2,
      "componentType": 5123,
      "count": 28500,
      "type": "SCALAR",
      "byteOffset": 60456
    },
    {
      "bufferView": 2,
      "componentType": 5123,
      "count": 33900,
      "type": "SCALAR",
      "byteOffset": 117456
    }
  ],
  "bufferViews": [
    {
      "buffer": 0,
      "byteLength": 203484,
      "target": 34962,
      "byteStride": 12
    },
    {
      "buffer": 0,
      "byteOffset": 203484,
      "byteLength": 203484,
      "target": 34962,
      "byteStride": 12
    },
    {
      "buffer": 0,
      "byteOffset": 406968,
      "byteLength": 185256,
      "target": 34963
    }
  ],
  "buffers": [
    {
      "uri": "data:application/octet-stream;base64,",
      "byteLength": 592224
    }
  ]
}