{
  "asset": {
    "version": "2.0",
    "generator": "Sketchup glTF Exporter v1.2.6 by Centaur"
  },
  "scene": 0,
  "scenes": [
    {
      "nodes": [
        0
      ]
    }
  ],
  "samplers": [
    {
    }
  ],
  "nodes": [
    {
      "name": "root",
      "children": [
        1
      ]
    },
    {
      "children": [
        2,
        15,
        17
      ]
    },
    {
      "children": [
        3,
        9
      ]
    },
    {
      "children": [
        4,
        8
      ]
    },
    {
      "children": [
        5,
        6,
        7
      ]
    },
    {
      "mesh": 0
    },
    {
      "mesh": 1
    },
    {
      "mesh": 2
    },
    {
      "mesh": 3
    },
    {
      "children": [
        10,
        14
      ]
    },
    {
      "children": [
        11,
        12,
        13
      ]
    },
    {
      "mesh": 4
    },
    {
      "mesh": 5
    },
    {
      "mesh": 6
    },
    {
      "mesh": 7
    },
    {
      "name": "Rock4",
      "children": [
        16
      ]
    },
    {
      "name": "skp406B",
      "mesh": 8
    },
    {
      "children": [
        18,
        19
      ],
      "mesh": 15
    },
    {
      "mesh": 9
    },
    {
      "children": [
        20,
        21,
        22,
        23
      ],
      "mesh": 14
    },
    {
      "mesh": 10
    },
    {
      "mesh": 11
    },
    {
      "mesh": 12
    },
    {
      "mesh": 13
    }
  ],
  "materials": [
    {
      "pbrMetallicRoughness": {
        "baseColorTexture": {
          "index": 0
        },
        "metallicFactor": 0.1,
        "roughnessFactor": 0.9
      },
      "name": "Zz222 (34)F2u945"
    },
    {
      "pbrMetallicRoughness": {
        "baseColorTexture": {
          "index": 1
        },
        "metallicFactor": 0.1,
        "roughnessFactor": 0.9
      },
      "name": "gradiant (13)"
    },
    {
      "pbrMetallicRoughness": {
        "baseColorTexture": {
          "index": 2
        },
        "metallicFactor": 0.1,
        "roughnessFactor": 0.9
      },
      "name": "[Carpet_Loop_Pattern]3"
    },
    {
      "pbrMetallicRoughness": {
        "baseColorFactor": [
          0.9574,
          0.8751,
          0.7969,
          1.0
        ],
        "metallicFactor": 0.1,
        "roughnessFactor": 0.9
      },
      "name": "0009_Linen",
      "doubleSided": true
    },
    {
      "pbrMetallicRoughness": {
        "baseColorFactor": [
          1.0,
          1.0,
          1.0,
          1.0
        ],
        "metallicFactor": 0.1,
        "roughnessFactor": 0.9
      },
      "name": "Color_000",
      "doubleSided": true
    }
  ],
  "images": [
    {
      "bufferView": 0,
      "mimeType": "image/jpeg"
    },
    {
      "bufferView": 1,
      "mimeType": "image/jpeg"
    },
    {
      "bufferView": 2,
      "mimeType": "image/jpeg"
    }
  ],
  "textures": [
    {
      "source": 0,
      "sampler": 0
    },
    {
      "source": 1,
      "sampler": 0
    },
    {
      "source": 2,
      "sampler": 0
    }
  ],
  "meshes": [
    {
      "primitives": [
        {
          "attributes": {
            "POSITION": 2,
            "NORMAL": 3,
            "TEXCOORD_0": 4
          },
          "indices": 5,
          "mode": 4,
          "material": 0
        }
      ]
    },
    {
      "primitives": [
        {
          "attributes": {
            "POSITION": 2,
            "NORMAL": 3,
            "TEXCOORD_0": 4
          },
          "indices": 6,
          "mode": 4,
          "material": 0
        }
      ]
    },
    {
      "primitives": [
        {
          "attributes": {
            "POSITION": 2,
            "NORMAL": 3,
            "TEXCOORD_0": 4
          },
          "indices": 7,
          "mode": 4,
          "material": 0
        }
      ]
    },
    {
      "primitives": [
        {
          "attributes": {
            "POSITION": 2,
            "NORMAL": 3,
            "TEXCOORD_0": 4
          },
          "indices": 8,
          "mode": 4,
          "material": 1
        }
      ]
    },
    {
      "primitives": [
        {
          "attributes": {
            "POSITION": 2,
            "NORMAL": 3,
            "TEXCOORD_0": 4
          },
          "indices": 9,
          "mode": 4,
          "material": 0
        }
      ]
    },
    {
      "primitives": [
        {
          "attributes": {
            "POSITION": 2,
            "NORMAL": 3,
            "TEXCOORD_0": 4
          },
          "indices": 10,
          "mode": 4,
          "material": 0
        }
      ]
    },
    {
      "primitives": [
        {
          "attributes": {
            "POSITION": 2,
            "NORMAL": 3,
            "TEXCOORD_0": 4
          },
          "indices": 11,
          "mode": 4,
          "material": 0
        }
      ]
    },
    {
      "primitives": [
        {
          "attributes": {
            "POSITION": 2,
            "NORMAL": 3,
            "TEXCOORD_0": 4
          },
          "indices": 12,
          "mode": 4,
          "material": 1
        }
      ]
    },
    {
      "primitives": [
        {
          "attributes": {
            "POSITION": 2,
            "NORMAL": 3,
            "TEXCOORD_0": 4
          },
          "indices": 13,
          "mode": 4,
          "material": 2
        }
      ]
    },
    {
      "primitives": [
        {
          "attributes": {
            "POSITION": 0,
            "NORMAL": 1
          },
          "indices": 14,
          "mode": 4,
          "material": 3
        }
      ]
    },
    {
      "primitives": [
        {
          "attributes": {
            "POSITION": 0,
            "NORMAL": 1
          },
          "indices": 15,
          "mode": 4,
          "material": 4
        },
        {
          "attributes": {
            "POSITION": 0,
            "NORMAL": 1
          },
          "indices": 16,
          "mode": 4,
          "material": 3
        }
      ]
    },
    {
      "primitives": [
        {
          "attributes": {
            "POSITION": 0,
            "NORMAL": 1
          },
          "indices": 17,
          "mode": 4,
          "material": 4
        },
        {
          "attributes": {
            "POSITION": 0,
            "NORMAL": 1
          },
          "indices": 18,
          "mode": 4,
          "material": 3
        }
      ]
    },
    {
      "primitives": [
        {
          "attributes": {
            "POSITION": 0,
            "NORMAL": 1
          },
          "indices": 19,
          "mode": 4,
          "material": 4
        },
        {
          "attributes": {
            "POSITION": 0,
            "NORMAL": 1
          },
          "indices": 20,
          "mode": 4,
          "material": 3
        }
      ]
    },
    {
      "primitives": [
        {
          "attributes": {
            "POSITION": 0,
            "NORMAL": 1
          },
          "indices": 21,
          "mode": 4,
          "material": 3
        }
      ]
    },
    {
      "primitives": [
        {
          "attributes": {
            "POSITION": 0,
            "NORMAL": 1
          },
          "indices": 22,
          "mode": 4,
          "material": 3
        }
      ]
    },
    {
      "primitives": [
        {
          "attributes": {
            "POSITION": 0,
            "NORMAL": 1
          },
          "indices": 23,
          "mode": 4,
          "material": 3
        }
      ]
    }
  ],
  "accessors": [
    {
      "bufferView": 3,
      "componentType": 5126,
      "count": 1825,
      "type": "VEC3",
      "min": [
        -0.6557312075973125,
        0.43826623514643603,
        -0.07246449445124697
      ],
      "max": [
        -0.5465255812787124,
        0.7049588342433054,
        0.19494671281212272
      ]
    },
    {
      "bufferView": 4,
      "componentType": 5126,
      "count": 1825,
      "type": "VEC3",
      "min": [
        -0.9948687415891457,
        -0.9957066378690663,
        -0.9976952673101767
      ],
      "max": [
        0.9948687415891461,
        0.9957066378690669,
        0.9976952673101775
      ]
    },
    {
      "bufferView": 5,
      "componentType": 5126,
      "count": 18072,
      "type": "VEC3",
      "min": [
        -0.7483077413670909,
        -0.7744911039207926,
        -0.8709791966834743
      ],
      "max": [
        0.7504090358569349,
        0.9454078338666726,
        0.8639851047825882
      ]
    },
    {
      "bufferView": 6,
      "componentType": 5126,
      "count": 18072,
      "type": "VEC3",
      "min": [
        -0.9997099071426397,
        -0.9998451970453789,
        -0.9998134678189874
      ],
      "max": [
        0.9992788700049793,
        0.9999519684469088,
        0.9999252029574547
      ]
    },
    {
      "bufferView": 7,
      "componentType": 5126,
      "count": 18072,
      "type": "VEC2",
      "min": [
        -16.78917035609563,
        -15.393298391267443
      ],
      "max": [
        16.487798042640563,
        17.737637473187103
      ]
    },
    {
      "bufferView": 9,
      "componentType": 5123,
      "count": 90,
      "type": "SCALAR"
    },
    {
      "bufferView": 9,
      "componentType": 5123,
      "count": 204,
      "type": "SCALAR",
      "byteOffset": 180
    },
    {
      "bufferView": 9,
      "componentType": 5123,
      "count": 90,
      "type": "SCALAR",
      "byteOffset": 588
    },
    {
      "bufferView": 9,
      "componentType": 5123,
      "count": 84,
      "type": "SCALAR",
      "byteOffset": 768
    },
    {
      "bufferView": 9,
      "componentType": 5123,
      "count": 90,
      "type": "SCALAR",
      "byteOffset": 936
    },
    {
      "bufferView": 9,
      "componentType": 5123,
      "count": 204,
      "type": "SCALAR",
      "byteOffset": 1116
    },
    {
      "bufferView": 9,
      "componentType": 5123,
      "count": 90,
      "type": "SCALAR",
      "byteOffset": 1524
    },
    {
      "bufferView": 9,
      "componentType": 5123,
      "count": 84,
      "type": "SCALAR",
      "byteOffset": 1704
    },
    {
      "bufferView": 9,
      "componentType": 5123,
      "count": 17640,
      "type": "SCALAR",
      "byteOffset": 1872
    },
    {
      "bufferView": 8,
      "componentType": 5123,
      "count": 1008,
      "type": "SCALAR"
    },
    {
      "bufferView": 8,
      "componentType": 5123,
      "count": 144,
      "type": "SCALAR",
      "byteOffset": 2016
    },
    {
      "bufferView": 8,
      "componentType": 5123,
      "count": 132,
      "type": "SCALAR",
      "byteOffset": 2304
    },
    {
      "bufferView": 8,
      "componentType": 5123,
      "count": 144,
      "type": "SCALAR",
      "byteOffset": 2568
    },
    {
      "bufferView": 8,
      "componentType": 5123,
      "count": 132,
      "type": "SCALAR",
      "byteOffset": 2856
    },
    {
      "bufferView": 8,
      "componentType": 5123,
      "count": 144,
      "type": "SCALAR",
      "byteOffset": 3120
    },
    {
      "bufferView": 8,
      "componentType": 5123,
      "count": 132,
      "type": "SCALAR",
      "byteOffset": 3408
    },
    {
      "bufferView": 8,
      "componentType": 5123,
      "count": 720,
      "type": "SCALAR",
      "byteOffset": 3672
    },
    {
      "bufferView": 8,
      "componentType": 5123,
      "count": 2367,
      "type": "SCALAR",
      "byteOffset": 5112
    },
    {
      "bufferView": 8,
      "componentType": 5123,
      "count": 354,
      "type": "SCALAR",
      "byteOffset": 9846
    }
  ],
  "bufferViews": [
    {
      "buffer": 0,
      "byteLength": 12263
    },
    {
      "buffer": 0,
      "byteOffset": 12263,
      "byteLength": 5358
    },
    {
      "buffer": 0,
      "byteOffset": 17621,
      "byteLength": 19342
    },
    {
      "buffer": 0,
      "byteOffset": 36972,
      "byteLength": 21900,
      "target": 34962,
      "byteStride": 12
    },
    {
      "buffer": 0,
      "byteOffset": 58872,
      "byteLength": 21900,
      "target": 34962,
      "byteStride": 12
    },
    {
      "buffer": 0,
      "byteOffset": 80772,
      "byteLength": 216864,
      "target": 34962,
      "byteStride": 12
    },
    {
      "buffer": 0,
      "byteOffset": 297636,
      "byteLength": 216864,
      "target": 34962,
      "byteStride": 12
    },
    {
      "buffer": 0,
      "byteOffset": 514504,
      "byteLength": 144576,
      "target": 34962,
      "byteStride": 8
    },
    {
      "buffer": 0,
      "byteOffset": 659080,
      "byteLength": 10554,
      "target": 34963
    },
    {
      "buffer": 0,
      "byteOffset": 669634,
      "byteLength": 37152,
      "target": 34963
    }
  ],
  "buffers": [
    {
      "uri": "data:application/octet-stream;base64,",
      "byteLength": 706786
    }
  ]
}