{
  "asset": {
    "version": "2.0",
    "generator": "Sketchup glTF Exporter v1.2.6 by Centaur"
  },
  "scene": 0,
  "scenes": [
    {
      "nodes": [
        0
      ]
    }
  ],
  "samplers": [
    {
    }
  ],
  "nodes": [
    {
      "name": "root",
      "children": [
        1
      ]
    },
    {
      "children": [
        2,
        3
      ]
    },
    {
      "mesh": 0
    },
    {
      "children": [
        4,
        5,
        12,
        15
      ]
    },
    {
      "mesh": 1
    },
    {
      "children": [
        6,
        7,
        8,
        9,
        10,
        11
      ]
    },
    {
      "name": "Difference",
      "mesh": 2
    },
    {
      "name": "Difference",
      "mesh": 3
    },
    {
      "mesh": 4
    },
    {
      "mesh": 5
    },
    {
      "name": "Difference",
      "mesh": 6
    },
    {
      "mesh": 7
    },
    {
      "name": "Golvbrunn",
      "children": [
        13,
        14
      ]
    },
    {
      "name": "Ytterram golvbrunn badrum",
      "mesh": 8
    },
    {
      "name": "galler golvbrunn",
      "mesh": 9
    },
    {
      "children": [
        16,
        17
      ]
    },
    {
      "name": "object #3",
      "mesh": 10
    },
    {
      "children": [
        18
      ]
    },
    {
      "name": "Difference",
      "mesh": 11
    }
  ],
  "materials": [
    {
      "pbrMetallicRoughness": {
        "baseColorTexture": {
          "index": 0
        },
        "roughnessFactor": 0.1
      },
      "name": "[Metal_Corrogated_Shiny]1"
    },
    {
      "pbrMetallicRoughness": {
        "baseColorTexture": {
          "index": 1
        },
        "metallicFactor": 0.1,
        "roughnessFactor": 0.9
      },
      "name": "[Tile_Ceramic_Natural]2"
    },
    {
      "pbrMetallicRoughness": {
        "baseColorTexture": {
          "index": 2
        },
        "metallicFactor": 0.1,
        "roughnessFactor": 0.9
      },
      "name": "<CorrogateShiny>1"
    },
    {
      "pbrMetallicRoughness": {
        "baseColorFactor": [
          0.2176,
          0.2176,
          0.2176,
          1.0
        ],
        "metallicFactor": 0.1,
        "roughnessFactor": 0.9
      },
      "name": "default material",
      "doubleSided": true
    }
  ],
  "images": [
    {
      "bufferView": 0,
      "mimeType": "image/jpeg"
    },
    {
      "bufferView": 1,
      "mimeType": "image/jpeg"
    },
    {
      "bufferView": 2,
      "mimeType": "image/jpeg"
    }
  ],
  "textures": [
    {
      "source": 0,
      "sampler": 0
    },
    {
      "source": 1,
      "sampler": 0
    },
    {
      "source": 2,
      "sampler": 0
    }
  ],
  "meshes": [
    {
      "primitives": [
        {
          "attributes": {
            "POSITION": 2,
            "NORMAL": 3,
            "TEXCOORD_0": 4
          },
          "indices": 5,
          "mode": 4,
          "material": 0
        }
      ]
    },
    {
      "primitives": [
        {
          "attributes": {
            "POSITION": 2,
            "NORMAL": 3,
            "TEXCOORD_0": 4
          },
          "indices": 6,
          "mode": 4,
          "material": 1
        }
      ]
    },
    {
      "primitives": [
        {
          "attributes": {
            "POSITION": 2,
            "NORMAL": 3,
            "TEXCOORD_0": 4
          },
          "indices": 7,
          "mode": 4,
          "material": 0
        }
      ]
    },
    {
      "primitives": [
        {
          "attributes": {
            "POSITION": 2,
            "NORMAL": 3,
            "TEXCOORD_0": 4
          },
          "indices": 8,
          "mode": 4,
          "material": 0
        }
      ]
    },
    {
      "primitives": [
        {
          "attributes": {
            "POSITION": 2,
            "NORMAL": 3,
            "TEXCOORD_0": 4
          },
          "indices": 9,
          "mode": 4,
          "material": 0
        }
      ]
    },
    {
      "primitives": [
        {
          "attributes": {
            "POSITION": 2,
            "NORMAL": 3,
            "TEXCOORD_0": 4
          },
          "indices": 10,
          "mode": 4,
          "material": 0
        }
      ]
    },
    {
      "primitives": [
        {
          "attributes": {
            "POSITION": 2,
            "NORMAL": 3,
            "TEXCOORD_0": 4
          },
          "indices": 11,
          "mode": 4,
          "material": 0
        }
      ]
    },
    {
      "primitives": [
        {
          "attributes": {
            "POSITION": 2,
            "NORMAL": 3,
            "TEXCOORD_0": 4
          },
          "indices": 12,
          "mode": 4,
          "material": 0
        }
      ]
    },
    {
      "primitives": [
        {
          "attributes": {
            "POSITION": 2,
            "NORMAL": 3,
            "TEXCOORD_0": 4
          },
          "indices": 13,
          "mode": 4,
          "material": 2
        },
        {
          "attributes": {
            "POSITION": 0,
            "NORMAL": 1
          },
          "indices": 14,
          "mode": 4,
          "material": 3
        }
      ]
    },
    {
      "primitives": [
        {
          "attributes": {
            "POSITION": 2,
            "NORMAL": 3,
            "TEXCOORD_0": 4
          },
          "indices": 15,
          "mode": 4,
          "material": 2
        }
      ]
    },
    {
      "primitives": [
        {
          "attributes": {
            "POSITION": 2,
            "NORMAL": 3,
            "TEXCOORD_0": 4
          },
          "indices": 16,
          "mode": 4,
          "material": 0
        }
      ]
    },
    {
      "primitives": [
        {
          "attributes": {
            "POSITION": 2,
            "NORMAL": 3,
            "TEXCOORD_0": 4
          },
          "indices": 17,
          "mode": 4,
          "material": 0
        }
      ]
    }
  ],
  "accessors": [
    {
      "bufferView": 3,
      "componentType": 5126,
      "count": 4,
      "type": "VEC3",
      "min": [
        -0.1718057448228989,
        -0.010146774392926942,
        0.26794893501535255
      ],
      "max": [
        -0.021051709697858217,
        0.08971936082560637,
        0.3859401319253779
      ]
    },
    {
      "bufferView": 4,
      "componentType": 5126,
      "count": 4,
      "type": "VEC3",
      "min": [
        0.2182867834071619,
        -0.7215870318216248,
        -0.657010681569647
      ],
      "max": [
        0.2182867834071619,
        -0.7215870318216248,
        -0.657010681569647
      ]
    },
    {
      "bufferView": 5,
      "componentType": 5126,
      "count": 35172,
      "type": "VEC3",
      "min": [
        -0.5207519771950591,
        -0.4359019937510177,
        -1.026399210338818
      ],
      "max": [
        0.49716341015518967,
        0.6761135671127549,
        0.5259911877696611
      ]
    },
    {
      "bufferView": 6,
      "componentType": 5126,
      "count": 35172,
      "type": "VEC3",
      "min": [
        -0.9999991898263862,
        -0.999458157662802,
        -0.999992091445742
      ],
      "max": [
        0.9999991898263841,
        0.9999396289405489,
        0.9999785116097423
      ]
    },
    {
      "bufferView": 7,
      "componentType": 5126,
      "count": 35172,
      "type": "VEC2",
      "min": [
        -62.67652683131645,
        -59.97550234415839
      ],
      "max": [
        62.676997207056964,
        53.07787669494743
      ]
    },
    {
      "bufferView": 9,
      "componentType": 5123,
      "count": 4980,
      "type": "SCALAR"
    },
    {
      "bufferView": 9,
      "componentType": 5123,
      "count": 14040,
      "type": "SCALAR",
      "byteOffset": 9960
    },
    {
      "bufferView": 9,
      "componentType": 5123,
      "count": 1152,
      "type": "SCALAR",
      "byteOffset": 38040
    },
    {
      "bufferView": 9,
      "componentType": 5123,
      "count": 456,
      "type": "SCALAR",
      "byteOffset": 40344
    },
    {
      "bufferView": 9,
      "componentType": 5123,
      "count": 1926,
      "type": "SCALAR",
      "byteOffset": 41256
    },
    {
      "bufferView": 9,
      "componentType": 5123,
      "count": 564,
      "type": "SCALAR",
      "byteOffset": 45108
    },
    {
      "bufferView": 9,
      "componentType": 5123,
      "count": 2280,
      "type": "SCALAR",
      "byteOffset": 46236
    },
    {
      "bufferView": 9,
      "componentType": 5123,
      "count": 3447,
      "type": "SCALAR",
      "byteOffset": 50796
    },
    {
      "bufferView": 9,
      "componentType": 5123,
      "count": 96,
      "type": "SCALAR",
      "byteOffset": 57690
    },
    {
      "bufferView": 8,
      "componentType": 5121,
      "count": 6,
      "type": "SCALAR"
    },
    {
      "bufferView": 9,
      "componentType": 5123,
      "count": 6066,
      "type": "SCALAR",
      "byteOffset": 57882
    },
    {
      "bufferView": 9,
      "componentType": 5123,
      "count": 9420,
      "type": "SCALAR",
      "byteOffset": 70014
    },
    {
      "bufferView": 9,
      "componentType": 5123,
      "count": 1224,
      "type": "SCALAR",
      "byteOffset": 88854
    }
  ],
  "bufferViews": [
    {
      "buffer": 0,
      "byteLength": 1806
    },
    {
      "buffer": 0,
      "byteOffset": 1806,
      "byteLength": 5634
    },
    {
      "buffer": 0,
      "byteOffset": 7440,
      "byteLength": 1806
    },
    {
      "buffer": 0,
      "byteOffset": 9252,
      "byteLength": 48,
      "target": 34962,
      "byteStride": 12
    },
    {
      "buffer": 0,
      "byteOffset": 9300,
      "byteLength": 48,
      "target": 34962,
      "byteStride": 12
    },
    {
      "buffer": 0,
      "byteOffset": 9348,
      "byteLength": 422064,
      "target": 34962,
      "byteStride": 12
    },
    {
      "buffer": 0,
      "byteOffset": 431412,
      "byteLength": 422064,
      "target": 34962,
      "byteStride": 12
    },
    {
      "buffer": 0,
      "byteOffset": 853480,
      "byteLength": 281376,
      "target": 34962,
      "byteStride": 8
    },
    {
      "buffer": 0,
      "byteOffset": 1134856,
      "byteLength": 6,
      "target": 34963
    },
    {
      "buffer": 0,
      "byteOffset": 1134862,
      "byteLength": 91302,
      "target": 34963
    }
  ],
  "buffers": [
    {
      "uri": "data:application/octet-stream;base64,",
      "byteLength": 1226164
    }
  ]
}