{
  "asset": {
    "version": "2.0",
    "generator": "Sketchup glTF Exporter v1.2.6 by Centaur"
  },
  "scene": 0,
  "scenes": [
    {
      "nodes": [
        0
      ]
    }
  ],
  "samplers": [
    {
    }
  ],
  "nodes": [
    {
      "name": "root",
      "children": [
        1
      ]
    },
    {
      "children": [
        2,
        4,
        6,
        8
      ],
      "mesh": 8
    },
    {
      "children": [
        3
      ],
      "mesh": 1
    },
    {
      "mesh": 0
    },
    {
      "children": [
        5
      ],
      "mesh": 3
    },
    {
      "mesh": 2
    },
    {
      "children": [
        7
      ],
      "mesh": 5
    },
    {
      "mesh": 4
    },
    {
      "children": [
        9
      ],
      "mesh": 7
    },
    {
      "mesh": 6
    }
  ],
  "materials": [
    {
      "pbrMetallicRoughness": {
        "baseColorTexture": {
          "index": 0
        },
        "metallicFactor": 0.1,
        "roughnessFactor": 0.9
      },
      "name": "Material29"
    },
    {
      "pbrMetallicRoughness": {
        "baseColorFactor": [
          0.2176,
          0.2176,
          0.2176,
          1.0
        ],
        "metallicFactor": 0.1,
        "roughnessFactor": 0.9
      },
      "name": "default material",
      "doubleSided": true
    },
    {
      "pbrMetallicRoughness": {
        "baseColorFactor": [
          0.2758,
          0.0802,
          0.6121,
          1.0
        ],
        "metallicFactor": 0.1,
        "roughnessFactor": 0.9
      },
      "name": "Color_J08"
    },
    {
      "pbrMetallicRoughness": {
        "baseColorFactor": [
          0.4098,
          0.4098,
          0.4098,
          1.0
        ],
        "metallicFactor": 0.1,
        "roughnessFactor": 0.9
      },
      "name": "[Color_003]1"
    },
    {
      "pbrMetallicRoughness": {
        "baseColorFactor": [
          0.022,
          0.0189,
          0.0097,
          1.0
        ],
        "metallicFactor": 0.1,
        "roughnessFactor": 0.9
      },
      "name": "Color_008",
      "doubleSided": true
    },
    {
      "pbrMetallicRoughness": {
        "baseColorFactor": [
          0.0,
          0.0,
          0.0,
          1.0
        ],
        "metallicFactor": 0.1,
        "roughnessFactor": 0.9
      },
      "name": "Color_009"
    }
  ],
  "images": [
    {
      "bufferView": 0,
      "mimeType": "image/jpeg"
    }
  ],
  "textures": [
    {
      "source": 0,
      "sampler": 0
    }
  ],
  "meshes": [
    {
      "primitives": [
        {
          "attributes": {
            "POSITION": 2,
            "NORMAL": 3,
            "TEXCOORD_0": 4
          },
          "indices": 5,
          "mode": 4,
          "material": 0
        }
      ]
    },
    {
      "primitives": [
        {
          "attributes": {
            "POSITION": 0,
            "NORMAL": 1
          },
          "indices": 6,
          "mode": 4,
          "material": 1
        },
        {
          "attributes": {
            "POSITION": 0,
            "NORMAL": 1
          },
          "indices": 7,
          "mode": 4,
          "material": 2
        }
      ]
    },
    {
      "primitives": [
        {
          "attributes": {
            "POSITION": 2,
            "NORMAL": 3,
            "TEXCOORD_0": 4
          },
          "indices": 8,
          "mode": 4,
          "material": 0
        }
      ]
    },
    {
      "primitives": [
        {
          "attributes": {
            "POSITION": 0,
            "NORMAL": 1
          },
          "indices": 9,
          "mode": 4,
          "material": 3
        },
        {
          "attributes": {
            "POSITION": 2,
            "NORMAL": 3,
            "TEXCOORD_0": 4
          },
          "indices": 10,
          "mode": 4,
          "material": 0
        }
      ]
    },
    {
      "primitives": [
        {
          "attributes": {
            "POSITION": 2,
            "NORMAL": 3,
            "TEXCOORD_0": 4
          },
          "indices": 11,
          "mode": 4,
          "material": 0
        }
      ]
    },
    {
      "primitives": [
        {
          "attributes": {
            "POSITION": 0,
            "NORMAL": 1
          },
          "indices": 12,
          "mode": 4,
          "material": 3
        },
        {
          "attributes": {
            "POSITION": 2,
            "NORMAL": 3,
            "TEXCOORD_0": 4
          },
          "indices": 13,
          "mode": 4,
          "material": 0
        }
      ]
    },
    {
      "primitives": [
        {
          "attributes": {
            "POSITION": 0,
            "NORMAL": 1
          },
          "indices": 14,
          "mode": 4,
          "material": 3
        }
      ]
    },
    {
      "primitives": [
        {
          "attributes": {
            "POSITION": 0,
            "NORMAL": 1
          },
          "indices": 15,
          "mode": 4,
          "material": 3
        }
      ]
    },
    {
      "primitives": [
        {
          "attributes": {
            "POSITION": 0,
            "NORMAL": 1
          },
          "indices": 16,
          "mode": 4,
          "material": 1
        },
        {
          "attributes": {
            "POSITION": 0,
            "NORMAL": 1
          },
          "indices": 17,
          "mode": 4,
          "material": 3
        },
        {
          "attributes": {
            "POSITION": 0,
            "NORMAL": 1
          },
          "indices": 18,
          "mode": 4,
          "material": 4
        },
        {
          "attributes": {
            "POSITION": 2,
            "NORMAL": 3,
            "TEXCOORD_0": 4
          },
          "indices": 19,
          "mode": 4,
          "material": 0
        },
        {
          "attributes": {
            "POSITION": 0,
            "NORMAL": 1
          },
          "indices": 20,
          "mode": 4,
          "material": 5
        }
      ]
    }
  ],
  "accessors": [
    {
      "bufferView": 1,
      "componentType": 5126,
      "count": 895,
      "type": "VEC3",
      "min": [
        -0.06900000000000014,
        -0.04200000000000005,
        -0.014000000000000281
      ],
      "max": [
        0.07,
        0.16400371370033684,
        0.014999999999999875
      ]
    },
    {
      "bufferView": 2,
      "componentType": 5126,
      "count": 895,
      "type": "VEC3",
      "min": [
        -1.0,
        -1.0,
        -1.0
      ],
      "max": [
        1.0,
        1.0,
        1.0
      ]
    },
    {
      "bufferView": 3,
      "componentType": 5126,
      "count": 160,
      "type": "VEC3",
      "min": [
        -0.06699999999999916,
        -0.0410000000000001,
        0.013999999999999846
      ],
      "max": [
        0.0649999999999997,
        0.038999999999999944,
        0.014999999999999875
      ]
    },
    {
      "bufferView": 4,
      "componentType": 5126,
      "count": 160,
      "type": "VEC3",
      "min": [
        -0.734254410254994,
        -0.7342544102549942,
        -0.6788744073988142
      ],
      "max": [
        0.7342544102549945,
        0.7342544102549943,
        1.0
      ]
    },
    {
      "bufferView": 5,
      "componentType": 5126,
      "count": 160,
      "type": "VEC2",
      "min": [
        -0.037037037037037035,
        0.4550229651417197
      ],
      "max": [
        0.519100939504283,
        1.0
      ]
    },
    {
      "bufferView": 7,
      "componentType": 5121,
      "count": 72,
      "type": "SCALAR"
    },
    {
      "bufferView": 6,
      "componentType": 5123,
      "count": 228,
      "type": "SCALAR"
    },
    {
      "bufferView": 6,
      "componentType": 5123,
      "count": 144,
      "type": "SCALAR",
      "byteOffset": 456
    },
    {
      "bufferView": 7,
      "componentType": 5121,
      "count": 66,
      "type": "SCALAR",
      "byteOffset": 72
    },
    {
      "bufferView": 6,
      "componentType": 5123,
      "count": 144,
      "type": "SCALAR",
      "byteOffset": 744
    },
    {
      "bufferView": 7,
      "componentType": 5121,
      "count": 66,
      "type": "SCALAR",
      "byteOffset": 138
    },
    {
      "bufferView": 7,
      "componentType": 5121,
      "count": 66,
      "type": "SCALAR",
      "byteOffset": 204
    },
    {
      "bufferView": 6,
      "componentType": 5123,
      "count": 144,
      "type": "SCALAR",
      "byteOffset": 1032
    },
    {
      "bufferView": 7,
      "componentType": 5121,
      "count": 66,
      "type": "SCALAR",
      "byteOffset": 270
    },
    {
      "bufferView": 6,
      "componentType": 5123,
      "count": 168,
      "type": "SCALAR",
      "byteOffset": 1320
    },
    {
      "bufferView": 6,
      "componentType": 5123,
      "count": 1170,
      "type": "SCALAR",
      "byteOffset": 1656
    },
    {
      "bufferView": 6,
      "componentType": 5123,
      "count": 144,
      "type": "SCALAR",
      "byteOffset": 3996
    },
    {
      "bufferView": 6,
      "componentType": 5123,
      "count": 210,
      "type": "SCALAR",
      "byteOffset": 4284
    },
    {
      "bufferView": 6,
      "componentType": 5123,
      "count": 858,
      "type": "SCALAR",
      "byteOffset": 4704
    },
    {
      "bufferView": 7,
      "componentType": 5121,
      "count": 114,
      "type": "SCALAR",
      "byteOffset": 336
    },
    {
      "bufferView": 6,
      "componentType": 5123,
      "count": 210,
      "type": "SCALAR",
      "byteOffset": 6420
    }
  ],
  "bufferViews": [
    {
      "buffer": 0,
      "byteLength": 884293
    },
    {
      "buffer": 0,
      "byteOffset": 884304,
      "byteLength": 10740,
      "target": 34962,
      "byteStride": 12
    },
    {
      "buffer": 0,
      "byteOffset": 895044,
      "byteLength": 10740,
      "target": 34962,
      "byteStride": 12
    },
    {
      "buffer": 0,
      "byteOffset": 905784,
      "byteLength": 1920,
      "target": 34962,
      "byteStride": 12
    },
    {
      "buffer": 0,
      "byteOffset": 907704,
      "byteLength": 1920,
      "target": 34962,
      "byteStride": 12
    },
    {
      "buffer": 0,
      "byteOffset": 909624,
      "byteLength": 1280,
      "target": 34962,
      "byteStride": 8
    },
    {
      "buffer": 0,
      "byteOffset": 910904,
      "byteLength": 6840,
      "target": 34963
    },
    {
      "buffer": 0,
      "byteOffset": 917744,
      "byteLength": 450,
      "target": 34963
    }
  ],
  "buffers": [
    {
      "uri": "data:application/octet-stream;base64,",
      "byteLength": 918194
    }
  ]
}