{
  "asset": {
    "version": "2.0",
    "generator": "Sketchup glTF Exporter v1.2.6 by Centaur"
  },
  "scene": 0,
  "scenes": [
    {
      "nodes": [
        0
      ]
    }
  ],
  "samplers": [
    {
    }
  ],
  "nodes": [
    {
      "name": "root",
      "children": [
        1
      ]
    },
    {
      "mesh": 0
    }
  ],
  "materials": [
    {
      "pbrMetallicRoughness": {
        "baseColorFactor": [
          1.0,
          1.0,
          1.0,
          1.0
        ],
        "metallicFactor": 0.1,
        "roughnessFactor": 0.9
      },
      "name": "Color M00"
    }
  ],
  "meshes": [
    {
      "primitives": [
        {
          "attributes": {
            "POSITION": 0,
            "NORMAL": 1
          },
          "indices": 2,
          "mode": 4,
          "material": 0
        }
      ]
    }
  ],
  "accessors": [
    {
      "bufferView": 0,
      "componentType": 5126,
      "count": 3771,
      "type": "VEC3",
      "min": [
        -0.18139623725666726,
        -0.11300000000000003,
        -0.07673609103369534
      ],
      "max": [
        0.17835908031910758,
        0.1273422347117914,
        0.08208182233664037
      ]
    },
    {
      "bufferView": 1,
      "componentType": 5126,
      "count": 3771,
      "type": "VEC3",
      "min": [
        -0.9999914617696324,
        -0.9999939563483576,
        -0.9993235868031897
      ],
      "max": [
        0.99994007026753,
        0.9999292082637377,
        0.9999729131879411
      ]
    },
    {
      "bufferView": 2,
      "componentType": 5123,
      "count": 21072,
      "type": "SCALAR"
    }
  ],
  "bufferViews": [
    {
      "buffer": 0,
      "byteLength": 45252,
      "target": 34962,
      "byteStride": 12
    },
    {
      "buffer": 0,
      "byteOffset": 45252,
      "byteLength": 45252,
      "target": 34962,
      "byteStride": 12
    },
    {
      "buffer": 0,
      "byteOffset": 90504,
      "byteLength": 42144,
      "target": 34963
    }
  ],
  "buffers": [
    {
      "uri": "data:application/octet-stream;base64,",
      "byteLength": 132648
    }
  ]
}