{
  "asset": {
    "version": "2.0",
    "generator": "Sketchup glTF Exporter v1.2.6 by Centaur"
  },
  "scene": 0,
  "scenes": [
    {
      "nodes": [
        0
      ]
    }
  ],
  "samplers": [
    {
    }
  ],
  "nodes": [
    {
      "name": "root",
      "children": [
        1
      ]
    },
    {
      "mesh": 0
    }
  ],
  "materials": [
    {
      "pbrMetallicRoughness": {
        "baseColorTexture": {
          "index": 0
        },
        "metallicFactor": 0.1,
        "roughnessFactor": 0.9
      },
      "name": "130185",
      "doubleSided": true
    },
    {
      "pbrMetallicRoughness": {
        "baseColorFactor": [
          0.142,
          0.142,
          0.142,
          1.0
        ],
        "metallicFactor": 0.1,
        "roughnessFactor": 0.9
      },
      "name": "0134_DimGray"
    }
  ],
  "images": [
    {
      "bufferView": 0,
      "mimeType": "image/jpeg"
    }
  ],
  "textures": [
    {
      "source": 0,
      "sampler": 0
    }
  ],
  "meshes": [
    {
      "primitives": [
        {
          "attributes": {
            "POSITION": 2,
            "NORMAL": 3,
            "TEXCOORD_0": 4
          },
          "indices": 5,
          "mode": 4,
          "material": 0
        },
        {
          "attributes": {
            "POSITION": 0,
            "NORMAL": 1
          },
          "indices": 6,
          "mode": 4,
          "material": 1
        }
      ]
    }
  ],
  "accessors": [
    {
      "bufferView": 1,
      "componentType": 5126,
      "count": 26,
      "type": "VEC3",
      "min": [
        -0.029939690310588154,
        0.130461097345133,
        -0.02993969031058798
      ],
      "max": [
        0.029939690310588334,
        0.130461097345133,
        0.029939690310588688
      ]
    },
    {
      "bufferView": 2,
      "componentType": 5126,
      "count": 26,
      "type": "VEC3",
      "min": [
        -0.7308476843424524,
        0.6757246285173457,
        -0.19003902532451292
      ],
      "max": [
        0.730847684342455,
        1.0,
        0.19003902532451236
      ]
    },
    {
      "bufferView": 3,
      "componentType": 5126,
      "count": 98,
      "type": "VEC3",
      "min": [
        -0.029939690310588154,
        -0.125,
        -0.02993969031058798
      ],
      "max": [
        0.029939690310588334,
        0.130461097345133,
        0.029939690310588702
      ]
    },
    {
      "bufferView": 4,
      "componentType": 5126,
      "count": 98,
      "type": "VEC3",
      "min": [
        -0.9914448613738104,
        -1.0,
        -1.0
      ],
      "max": [
        0.9914448613738105,
        0.6788744073988143,
        1.0
      ]
    },
    {
      "bufferView": 5,
      "componentType": 5126,
      "count": 98,
      "type": "VEC2",
      "min": [
        0.11200655091916145,
        0.039649122807017156
      ],
      "max": [
        0.883488985226218,
        1.0
      ]
    },
    {
      "bufferView": 7,
      "componentType": 5121,
      "count": 210,
      "type": "SCALAR"
    },
    {
      "bufferView": 6,
      "componentType": 5121,
      "count": 66,
      "type": "SCALAR"
    }
  ],
  "bufferViews": [
    {
      "buffer": 0,
      "byteLength": 221346
    },
    {
      "buffer": 0,
      "byteOffset": 221352,
      "byteLength": 312,
      "target": 34962,
      "byteStride": 12
    },
    {
      "buffer": 0,
      "byteOffset": 221664,
      "byteLength": 312,
      "target": 34962,
      "byteStride": 12
    },
    {
      "buffer": 0,
      "byteOffset": 221976,
      "byteLength": 1176,
      "target": 34962,
      "byteStride": 12
    },
    {
      "buffer": 0,
      "byteOffset": 223152,
      "byteLength": 1176,
      "target": 34962,
      "byteStride": 12
    },
    {
      "buffer": 0,
      "byteOffset": 224328,
      "byteLength": 784,
      "target": 34962,
      "byteStride": 8
    },
    {
      "buffer": 0,
      "byteOffset": 225112,
      "byteLength": 66,
      "target": 34963
    },
    {
      "buffer": 0,
      "byteOffset": 225178,
      "byteLength": 210,
      "target": 34963
    }
  ],
  "buffers": [
    {
      "uri": "data:application/octet-stream;base64,",
      "byteLength": 225388
    }
  ]
}