{
  "asset": {
    "version": "2.0",
    "generator": "Sketchup glTF Exporter v1.2.6 by Centaur"
  },
  "scene": 0,
  "scenes": [
    {
      "nodes": [
        0
      ]
    }
  ],
  "samplers": [
    {
    }
  ],
  "nodes": [
    {
      "name": "root",
      "children": [
        1
      ]
    },
    {
      "name": "towel toalla#2",
      "mesh": 0
    }
  ],
  "materials": [
    {
      "pbrMetallicRoughness": {
        "baseColorFactor": [
          0.9828,
          0.9158,
          0.7969,
          1.0
        ],
        "metallicFactor": 0.1,
        "roughnessFactor": 0.9
      },
      "name": "0030_OldLace",
      "doubleSided": true
    },
    {
      "pbrMetallicRoughness": {
        "baseColorFactor": [
          0.3636,
          0.0342,
          0.0265,
          1.0
        ],
        "metallicFactor": 0.1,
        "roughnessFactor": 0.9
      },
      "name": "_________1"
    }
  ],
  "meshes": [
    {
      "primitives": [
        {
          "attributes": {
            "POSITION": 0,
            "NORMAL": 1
          },
          "indices": 2,
          "mode": 4,
          "material": 0
        },
        {
          "attributes": {
            "POSITION": 0,
            "NORMAL": 1
          },
          "indices": 3,
          "mode": 4,
          "material": 1
        }
      ]
    }
  ],
  "accessors": [
    {
      "bufferView": 0,
      "componentType": 5126,
      "count": 7933,
      "type": "VEC3",
      "min": [
        -0.042036975679397445,
        -0.15899999999999995,
        -0.052072797805309094
      ],
      "max": [
        0.01900000000000028,
        0.14635648274803173,
        0.056999999999999655
      ]
    },
    {
      "bufferView": 1,
      "componentType": 5126,
      "count": 7933,
      "type": "VEC3",
      "min": [
        -0.9999963466224324,
        -0.9987417818607373,
        -0.9999971168842736
      ],
      "max": [
        0.9999968946025491,
        0.846808463073337,
        0.9999996847208134
      ]
    },
    {
      "bufferView": 2,
      "componentType": 5123,
      "count": 46449,
      "type": "SCALAR"
    },
    {
      "bufferView": 2,
      "componentType": 5123,
      "count": 3,
      "type": "SCALAR",
      "byteOffset": 92898
    }
  ],
  "bufferViews": [
    {
      "buffer": 0,
      "byteLength": 95196,
      "target": 34962,
      "byteStride": 12
    },
    {
      "buffer": 0,
      "byteOffset": 95196,
      "byteLength": 95196,
      "target": 34962,
      "byteStride": 12
    },
    {
      "buffer": 0,
      "byteOffset": 190392,
      "byteLength": 92904,
      "target": 34963
    }
  ],
  "buffers": [
    {
      "uri": "data:application/octet-stream;base64,",
      "byteLength": 283296
    }
  ]
}