{
  "asset": {
    "version": "2.0",
    "generator": "Sketchup glTF Exporter v1.2.6 by Centaur"
  },
  "scene": 0,
  "scenes": [
    {
      "nodes": [
        0
      ]
    }
  ],
  "samplers": [
    {
    }
  ],
  "nodes": [
    {
      "name": "root",
      "children": [
        1
      ]
    },
    {
      "name": "Component#7",
      "children": [
        2
      ]
    },
    {
      "children": [
        3,
        4,
        5,
        6,
        7,
        8,
        12,
        13
      ]
    },
    {
      "mesh": 0
    },
    {
      "mesh": 1
    },
    {
      "name": "02",
      "mesh": 2
    },
    {
      "name": "02",
      "mesh": 3
    },
    {
      "mesh": 4
    },
    {
      "children": [
        9,
        10,
        11
      ]
    },
    {
      "name": "01",
      "mesh": 5
    },
    {
      "name": "01",
      "mesh": 6
    },
    {
      "mesh": 7
    },
    {
      "mesh": 8
    },
    {
      "mesh": 9
    }
  ],
  "materials": [
    {
      "pbrMetallicRoughness": {
        "baseColorTexture": {
          "index": 0
        },
        "metallicFactor": 0.1,
        "roughnessFactor": 0.9
      },
      "name": "Color_001"
    },
    {
      "pbrMetallicRoughness": {
        "baseColorTexture": {
          "index": 1
        },
        "metallicFactor": 0.1,
        "roughnessFactor": 0.9
      },
      "name": "Color_008"
    },
    {
      "pbrMetallicRoughness": {
        "baseColorTexture": {
          "index": 2
        },
        "metallicFactor": 0.1,
        "roughnessFactor": 0.9
      },
      "name": "Color C05"
    },
    {
      "pbrMetallicRoughness": {
        "baseColorTexture": {
          "index": 3
        },
        "metallicFactor": 0.1,
        "roughnessFactor": 0.9
      },
      "name": "Color J08"
    },
    {
      "pbrMetallicRoughness": {
        "baseColorFactor": [
          0.6121,
          0.037,
          0.0242,
          1.0
        ],
        "metallicFactor": 0.1,
        "roughnessFactor": 0.9
      },
      "name": "Color B04"
    },
    {
      "pbrMetallicRoughness": {
        "baseColorTexture": {
          "index": 4
        },
        "metallicFactor": 0.1,
        "roughnessFactor": 0.9
      },
      "name": "Color H07"
    },
    {
      "pbrMetallicRoughness": {
        "baseColorTexture": {
          "index": 5
        },
        "metallicFactor": 0.1,
        "roughnessFactor": 0.9
      },
      "name": "<CoolGray5>"
    },
    {
      "pbrMetallicRoughness": {
        "baseColorFactor": [
          0.2176,
          0.2176,
          0.2176,
          1.0
        ],
        "metallicFactor": 0.1,
        "roughnessFactor": 0.9
      },
      "name": "default material",
      "doubleSided": true
    },
    {
      "pbrMetallicRoughness": {
        "baseColorTexture": {
          "index": 6
        },
        "metallicFactor": 0.1,
        "roughnessFactor": 0.9
      },
      "name": "Color_D02"
    },
    {
      "pbrMetallicRoughness": {
        "baseColorTexture": {
          "index": 7
        },
        "metallicFactor": 0.1,
        "roughnessFactor": 0.9
      },
      "name": "<Blue>"
    },
    {
      "pbrMetallicRoughness": {
        "baseColorTexture": {
          "index": 8
        },
        "metallicFactor": 0.1,
        "roughnessFactor": 0.9
      },
      "name": "Color I08"
    }
  ],
  "images": [
    {
      "bufferView": 0,
      "mimeType": "image/jpeg"
    },
    {
      "bufferView": 1,
      "mimeType": "image/jpeg"
    },
    {
      "bufferView": 2,
      "mimeType": "image/jpeg"
    },
    {
      "bufferView": 3,
      "mimeType": "image/png"
    },
    {
      "bufferView": 4,
      "mimeType": "image/jpeg"
    },
    {
      "bufferView": 5,
      "mimeType": "image/jpeg"
    },
    {
      "bufferView": 6,
      "mimeType": "image/jpeg"
    },
    {
      "bufferView": 7,
      "mimeType": "image/jpeg"
    },
    {
      "bufferView": 8,
      "mimeType": "image/jpeg"
    }
  ],
  "textures": [
    {
      "source": 0,
      "sampler": 0
    },
    {
      "source": 1,
      "sampler": 0
    },
    {
      "source": 2,
      "sampler": 0
    },
    {
      "source": 3,
      "sampler": 0
    },
    {
      "source": 4,
      "sampler": 0
    },
    {
      "source": 5,
      "sampler": 0
    },
    {
      "source": 6,
      "sampler": 0
    },
    {
      "source": 7,
      "sampler": 0
    },
    {
      "source": 8,
      "sampler": 0
    }
  ],
  "meshes": [
    {
      "primitives": [
        {
          "attributes": {
            "POSITION": 2,
            "NORMAL": 3,
            "TEXCOORD_0": 4
          },
          "indices": 5,
          "mode": 4,
          "material": 0
        },
        {
          "attributes": {
            "POSITION": 2,
            "NORMAL": 3,
            "TEXCOORD_0": 4
          },
          "indices": 6,
          "mode": 4,
          "material": 1
        }
      ]
    },
    {
      "primitives": [
        {
          "attributes": {
            "POSITION": 2,
            "NORMAL": 3,
            "TEXCOORD_0": 4
          },
          "indices": 7,
          "mode": 4,
          "material": 2
        }
      ]
    },
    {
      "primitives": [
        {
          "attributes": {
            "POSITION": 2,
            "NORMAL": 3,
            "TEXCOORD_0": 4
          },
          "indices": 8,
          "mode": 4,
          "material": 3
        }
      ]
    },
    {
      "primitives": [
        {
          "attributes": {
            "POSITION": 2,
            "NORMAL": 3,
            "TEXCOORD_0": 4
          },
          "indices": 9,
          "mode": 4,
          "material": 3
        }
      ]
    },
    {
      "primitives": [
        {
          "attributes": {
            "POSITION": 2,
            "NORMAL": 3,
            "TEXCOORD_0": 4
          },
          "indices": 10,
          "mode": 4,
          "material": 1
        },
        {
          "attributes": {
            "POSITION": 0,
            "NORMAL": 1
          },
          "indices": 11,
          "mode": 4,
          "material": 4
        },
        {
          "attributes": {
            "POSITION": 2,
            "NORMAL": 3,
            "TEXCOORD_0": 4
          },
          "indices": 12,
          "mode": 4,
          "material": 5
        }
      ]
    },
    {
      "primitives": [
        {
          "attributes": {
            "POSITION": 2,
            "NORMAL": 3,
            "TEXCOORD_0": 4
          },
          "indices": 13,
          "mode": 4,
          "material": 6
        },
        {
          "attributes": {
            "POSITION": 2,
            "NORMAL": 3,
            "TEXCOORD_0": 4
          },
          "indices": 14,
          "mode": 4,
          "material": 0
        },
        {
          "attributes": {
            "POSITION": 0,
            "NORMAL": 1
          },
          "indices": 15,
          "mode": 4,
          "material": 7
        }
      ]
    },
    {
      "primitives": [
        {
          "attributes": {
            "POSITION": 2,
            "NORMAL": 3,
            "TEXCOORD_0": 4
          },
          "indices": 16,
          "mode": 4,
          "material": 6
        },
        {
          "attributes": {
            "POSITION": 2,
            "NORMAL": 3,
            "TEXCOORD_0": 4
          },
          "indices": 17,
          "mode": 4,
          "material": 0
        },
        {
          "attributes": {
            "POSITION": 0,
            "NORMAL": 1
          },
          "indices": 18,
          "mode": 4,
          "material": 7
        }
      ]
    },
    {
      "primitives": [
        {
          "attributes": {
            "POSITION": 2,
            "NORMAL": 3,
            "TEXCOORD_0": 4
          },
          "indices": 19,
          "mode": 4,
          "material": 1
        },
        {
          "attributes": {
            "POSITION": 2,
            "NORMAL": 3,
            "TEXCOORD_0": 4
          },
          "indices": 20,
          "mode": 4,
          "material": 8
        },
        {
          "attributes": {
            "POSITION": 2,
            "NORMAL": 3,
            "TEXCOORD_0": 4
          },
          "indices": 21,
          "mode": 4,
          "material": 9
        }
      ]
    },
    {
      "primitives": [
        {
          "attributes": {
            "POSITION": 2,
            "NORMAL": 3,
            "TEXCOORD_0": 4
          },
          "indices": 22,
          "mode": 4,
          "material": 10
        }
      ]
    },
    {
      "primitives": [
        {
          "attributes": {
            "POSITION": 2,
            "NORMAL": 3,
            "TEXCOORD_0": 4
          },
          "indices": 23,
          "mode": 4,
          "material": 1
        }
      ]
    }
  ],
  "accessors": [
    {
      "bufferView": 9,
      "componentType": 5126,
      "count": 342,
      "type": "VEC3",
      "min": [
        -0.03171063564102369,
        -0.1236055878931866,
        -0.019440096113529808
      ],
      "max": [
        0.0316801443589763,
        0.10295446133609605,
        0.020850207738797477
      ]
    },
    {
      "bufferView": 10,
      "componentType": 5126,
      "count": 342,
      "type": "VEC3",
      "min": [
        -1.0,
        -0.9961946980917459,
        -0.03298506647569856
      ],
      "max": [
        1.0,
        0.6280370937023565,
        0.9997201415472434
      ]
    },
    {
      "bufferView": 11,
      "componentType": 5126,
      "count": 3971,
      "type": "VEC3",
      "min": [
        -0.03761994564102368,
        -0.12360558789318656,
        -0.026190066114190527
      ],
      "max": [
        0.03758945435897629,
        0.10865003131073922,
        0.01867384441901516
      ]
    },
    {
      "bufferView": 12,
      "componentType": 5126,
      "count": 3971,
      "type": "VEC3",
      "min": [
        -1.0,
        -0.99999980862848,
        -0.9999986578913869
      ],
      "max": [
        1.0,
        0.99999980862848,
        0.99999980862848
      ]
    },
    {
      "bufferView": 13,
      "componentType": 5126,
      "count": 3971,
      "type": "VEC2",
      "min": [
        -3.8979591836734695,
        -4.1231282054488885
      ],
      "max": [
        3.8979591836734695,
        6.520799820912392
      ]
    },
    {
      "bufferView": 15,
      "componentType": 5123,
      "count": 1947,
      "type": "SCALAR"
    },
    {
      "bufferView": 15,
      "componentType": 5123,
      "count": 72,
      "type": "SCALAR",
      "byteOffset": 3894
    },
    {
      "bufferView": 15,
      "componentType": 5123,
      "count": 408,
      "type": "SCALAR",
      "byteOffset": 4038
    },
    {
      "bufferView": 15,
      "componentType": 5123,
      "count": 132,
      "type": "SCALAR",
      "byteOffset": 4854
    },
    {
      "bufferView": 15,
      "componentType": 5123,
      "count": 132,
      "type": "SCALAR",
      "byteOffset": 5118
    },
    {
      "bufferView": 15,
      "componentType": 5123,
      "count": 348,
      "type": "SCALAR",
      "byteOffset": 5382
    },
    {
      "bufferView": 14,
      "componentType": 5123,
      "count": 1380,
      "type": "SCALAR"
    },
    {
      "bufferView": 15,
      "componentType": 5123,
      "count": 90,
      "type": "SCALAR",
      "byteOffset": 6078
    },
    {
      "bufferView": 15,
      "componentType": 5123,
      "count": 18,
      "type": "SCALAR",
      "byteOffset": 6258
    },
    {
      "bufferView": 15,
      "componentType": 5123,
      "count": 12,
      "type": "SCALAR",
      "byteOffset": 6294
    },
    {
      "bufferView": 14,
      "componentType": 5123,
      "count": 18,
      "type": "SCALAR",
      "byteOffset": 2760
    },
    {
      "bufferView": 15,
      "componentType": 5123,
      "count": 18,
      "type": "SCALAR",
      "byteOffset": 6318
    },
    {
      "bufferView": 15,
      "componentType": 5123,
      "count": 12,
      "type": "SCALAR",
      "byteOffset": 6354
    },
    {
      "bufferView": 14,
      "componentType": 5123,
      "count": 18,
      "type": "SCALAR",
      "byteOffset": 2796
    },
    {
      "bufferView": 15,
      "componentType": 5123,
      "count": 1896,
      "type": "SCALAR",
      "byteOffset": 6378
    },
    {
      "bufferView": 15,
      "componentType": 5123,
      "count": 234,
      "type": "SCALAR",
      "byteOffset": 10170
    },
    {
      "bufferView": 15,
      "componentType": 5123,
      "count": 108,
      "type": "SCALAR",
      "byteOffset": 10638
    },
    {
      "bufferView": 15,
      "componentType": 5123,
      "count": 588,
      "type": "SCALAR",
      "byteOffset": 10854
    },
    {
      "bufferView": 15,
      "componentType": 5123,
      "count": 102,
      "type": "SCALAR",
      "byteOffset": 12030
    }
  ],
  "bufferViews": [
    {
      "buffer": 0,
      "byteLength": 56426
    },
    {
      "buffer": 0,
      "byteOffset": 56426,
      "byteLength": 13623
    },
    {
      "buffer": 0,
      "byteOffset": 70049,
      "byteLength": 212884
    },
    {
      "buffer": 0,
      "byteOffset": 282933,
      "byteLength": 9170
    },
    {
      "buffer": 0,
      "byteOffset": 292103,
      "byteLength": 51614
    },
    {
      "buffer": 0,
      "byteOffset": 343717,
      "byteLength": 109348
    },
    {
      "buffer": 0,
      "byteOffset": 453065,
      "byteLength": 45629
    },
    {
      "buffer": 0,
      "byteOffset": 498694,
      "byteLength": 24986
    },
    {
      "buffer": 0,
      "byteOffset": 523680,
      "byteLength": 4229
    },
    {
      "buffer": 0,
      "byteOffset": 527916,
      "byteLength": 4104,
      "target": 34962,
      "byteStride": 12
    },
    {
      "buffer": 0,
      "byteOffset": 532020,
      "byteLength": 4104,
      "target": 34962,
      "byteStride": 12
    },
    {
      "buffer": 0,
      "byteOffset": 536124,
      "byteLength": 47652,
      "target": 34962,
      "byteStride": 12
    },
    {
      "buffer": 0,
      "byteOffset": 583776,
      "byteLength": 47652,
      "target": 34962,
      "byteStride": 12
    },
    {
      "buffer": 0,
      "byteOffset": 631432,
      "byteLength": 31768,
      "target": 34962,
      "byteStride": 8
    },
    {
      "buffer": 0,
      "byteOffset": 663200,
      "byteLength": 2832,
      "target": 34963
    },
    {
      "buffer": 0,
      "byteOffset": 666032,
      "byteLength": 12234,
      "target": 34963
    }
  ],
  "buffers": [
    {
      "uri": "data:application/octet-stream;base64,",
      "byteLength": 678266
    }
  ]
}