{
  "asset": {
    "version": "2.0",
    "generator": "Sketchup glTF Exporter v1.2.6 by Centaur"
  },
  "scene": 0,
  "scenes": [
    {
      "nodes": [
        0
      ]
    }
  ],
  "samplers": [
    {
    }
  ],
  "nodes": [
    {
      "name": "root",
      "children": [
        1
      ]
    },
    {
      "name": "Bread and Butter",
      "mesh": 0
    }
  ],
  "materials": [
    {
      "pbrMetallicRoughness": {
        "baseColorFactor": [
          0.029,
          0.0127,
          0.0023,
          1.0
        ],
        "metallicFactor": 0.1,
        "roughnessFactor": 0.9
      },
      "name": "Color M09",
      "doubleSided": true
    },
    {
      "pbrMetallicRoughness": {
        "baseColorTexture": {
          "index": 0
        },
        "metallicFactor": 0.1,
        "roughnessFactor": 0.9
      },
      "name": "Granite Dark Gray",
      "doubleSided": true
    }
  ],
  "images": [
    {
      "bufferView": 0,
      "mimeType": "image/jpeg"
    }
  ],
  "textures": [
    {
      "source": 0,
      "sampler": 0
    }
  ],
  "meshes": [
    {
      "primitives": [
        {
          "attributes": {
            "POSITION": 0,
            "NORMAL": 1
          },
          "indices": 5,
          "mode": 4,
          "material": 0
        },
        {
          "attributes": {
            "POSITION": 2,
            "NORMAL": 3,
            "TEXCOORD_0": 4
          },
          "indices": 6,
          "mode": 4,
          "material": 1
        }
      ]
    }
  ],
  "accessors": [
    {
      "bufferView": 1,
      "componentType": 5126,
      "count": 305,
      "type": "VEC3",
      "min": [
        -0.05697396703372935,
        -0.05702847805592562,
        -0.00947977648675015
      ],
      "max": [
        0.057081514787047476,
        0.05660474607341893,
        0.009792913307983282
      ]
    },
    {
      "bufferView": 2,
      "componentType": 5126,
      "count": 305,
      "type": "VEC3",
      "min": [
        -0.9218073523508302,
        -0.9300006201990615,
        -0.9999757922357378
      ],
      "max": [
        0.9371085496780999,
        0.9364651647219864,
        0.9999757922357378
      ]
    },
    {
      "bufferView": 3,
      "componentType": 5126,
      "count": 580,
      "type": "VEC3",
      "min": [
        -0.05591877978514513,
        -0.05488033254298501,
        -0.009460650245168067
      ],
      "max": [
        0.05602962782640758,
        0.0555552034790212,
        0.009785594515948012
      ]
    },
    {
      "bufferView": 4,
      "componentType": 5126,
      "count": 580,
      "type": "VEC3",
      "min": [
        -0.9999757500046723,
        -0.9996560243517122,
        -0.09848665630321525
      ],
      "max": [
        0.9999372932663785,
        0.9974766691937601,
        0.9999757922357395
      ]
    },
    {
      "bufferView": 5,
      "componentType": 5126,
      "count": 580,
      "type": "VEC2",
      "min": [
        -2.064265729760008,
        -0.8852088013590618
      ],
      "max": [
        2.440244465213948,
        1.2605598480810871
      ]
    },
    {
      "bufferView": 6,
      "componentType": 5123,
      "count": 1371,
      "type": "SCALAR"
    },
    {
      "bufferView": 7,
      "componentType": 5123,
      "count": 1062,
      "type": "SCALAR"
    }
  ],
  "bufferViews": [
    {
      "buffer": 0,
      "byteLength": 33423
    },
    {
      "buffer": 0,
      "byteOffset": 33432,
      "byteLength": 3660,
      "target": 34962,
      "byteStride": 12
    },
    {
      "buffer": 0,
      "byteOffset": 37092,
      "byteLength": 3660,
      "target": 34962,
      "byteStride": 12
    },
    {
      "buffer": 0,
      "byteOffset": 40752,
      "byteLength": 6960,
      "target": 34962,
      "byteStride": 12
    },
    {
      "buffer": 0,
      "byteOffset": 47712,
      "byteLength": 6960,
      "target": 34962,
      "byteStride": 12
    },
    {
      "buffer": 0,
      "byteOffset": 54672,
      "byteLength": 4640,
      "target": 34962,
      "byteStride": 8
    },
    {
      "buffer": 0,
      "byteOffset": 59312,
      "byteLength": 2742,
      "target": 34963
    },
    {
      "buffer": 0,
      "byteOffset": 62054,
      "byteLength": 2124,
      "target": 34963
    }
  ],
  "buffers": [
    {
      "uri": "data:application/octet-stream;base64,",
      "byteLength": 64178
    }
  ]
}