{
  "asset": {
    "version": "2.0",
    "generator": "Sketchup glTF Exporter v1.2.6 by Centaur"
  },
  "scene": 0,
  "scenes": [
    {
      "nodes": [
        0
      ]
    }
  ],
  "samplers": [
    {
    }
  ],
  "nodes": [
    {
      "name": "root",
      "children": [
        1
      ]
    },
    {
      "name": "Component#10",
      "mesh": 0
    }
  ],
  "materials": [
    {
      "pbrMetallicRoughness": {
        "baseColorFactor": [
          0.122,
          0.1275,
          0.0546,
          1.0
        ],
        "metallicFactor": 0.1,
        "roughnessFactor": 0.9
      },
      "name": "Dark Olive"
    },
    {
      "pbrMetallicRoughness": {
        "baseColorFactor": [
          0.8122,
          0.0892,
          0.0846,
          1.0
        ],
        "metallicFactor": 0.1,
        "roughnessFactor": 0.9
      },
      "name": "Red"
    },
    {
      "pbrMetallicRoughness": {
        "baseColorFactor": [
          0.68,
          0.68,
          0.68,
          1.0
        ],
        "metallicFactor": 0.1,
        "roughnessFactor": 0.9
      },
      "name": "Gray3"
    },
    {
      "pbrMetallicRoughness": {
        "baseColorFactor": [
          0.4098,
          0.4098,
          0.4098,
          1.0
        ],
        "metallicFactor": 0.1,
        "roughnessFactor": 0.9
      },
      "name": "Gray4"
    },
    {
      "pbrMetallicRoughness": {
        "baseColorFactor": [
          0.0892,
          0.148,
          0.0242,
          1.0
        ],
        "metallicFactor": 0.1,
        "roughnessFactor": 0.9
      },
      "name": "0059_DarkOliveGreen"
    }
  ],
  "meshes": [
    {
      "primitives": [
        {
          "attributes": {
            "POSITION": 0,
            "NORMAL": 1
          },
          "indices": 2,
          "mode": 4,
          "material": 0
        },
        {
          "attributes": {
            "POSITION": 0,
            "NORMAL": 1
          },
          "indices": 3,
          "mode": 4,
          "material": 1
        },
        {
          "attributes": {
            "POSITION": 0,
            "NORMAL": 1
          },
          "indices": 4,
          "mode": 4,
          "material": 2
        },
        {
          "attributes": {
            "POSITION": 0,
            "NORMAL": 1
          },
          "indices": 5,
          "mode": 4,
          "material": 3
        },
        {
          "attributes": {
            "POSITION": 0,
            "NORMAL": 1
          },
          "indices": 6,
          "mode": 4,
          "material": 4
        }
      ]
    }
  ],
  "accessors": [
    {
      "bufferView": 0,
      "componentType": 5126,
      "count": 168,
      "type": "VEC3",
      "min": [
        -0.019908739542728007,
        -0.059000000000000004,
        -0.019908739542729453
      ],
      "max": [
        0.019908739542729453,
        0.07501999999999989,
        0.019908739542726567
      ]
    },
    {
      "bufferView": 1,
      "componentType": 5126,
      "count": 168,
      "type": "VEC3",
      "min": [
        -0.7342544102546642,
        -1.0,
        -0.7342544102546642
      ],
      "max": [
        0.7342544102546642,
        1.0,
        0.7342544102559527
      ]
    },
    {
      "bufferView": 2,
      "componentType": 5121,
      "count": 144,
      "type": "SCALAR"
    },
    {
      "bufferView": 2,
      "componentType": 5121,
      "count": 432,
      "type": "SCALAR",
      "byteOffset": 144
    },
    {
      "bufferView": 2,
      "componentType": 5121,
      "count": 144,
      "type": "SCALAR",
      "byteOffset": 576
    },
    {
      "bufferView": 2,
      "componentType": 5121,
      "count": 66,
      "type": "SCALAR",
      "byteOffset": 720
    },
    {
      "bufferView": 2,
      "componentType": 5121,
      "count": 66,
      "type": "SCALAR",
      "byteOffset": 786
    }
  ],
  "bufferViews": [
    {
      "buffer": 0,
      "byteLength": 2016,
      "target": 34962,
      "byteStride": 12
    },
    {
      "buffer": 0,
      "byteOffset": 2016,
      "byteLength": 2016,
      "target": 34962,
      "byteStride": 12
    },
    {
      "buffer": 0,
      "byteOffset": 4032,
      "byteLength": 852,
      "target": 34963
    }
  ],
  "buffers": [
    {
      "uri": "data:application/octet-stream;base64,",
      "byteLength": 4884
    }
  ]
}