{
  "asset": {
    "version": "2.0",
    "generator": "Sketchup glTF Exporter v1.2.6 by Centaur"
  },
  "scene": 0,
  "scenes": [
    {
      "nodes": [
        0
      ]
    }
  ],
  "samplers": [
    {
    }
  ],
  "nodes": [
    {
      "name": "root",
      "children": [
        1
      ]
    },
    {
      "children": [
        2,
        8,
        9,
        12,
        14,
        15,
        18
      ]
    },
    {
      "name": "Group#13",
      "children": [
        3,
        5
      ]
    },
    {
      "children": [
        4
      ]
    },
    {
      "mesh": 0
    },
    {
      "children": [
        6,
        7
      ]
    },
    {
      "mesh": 1
    },
    {
      "mesh": 2
    },
    {
      "name": "Group396#1",
      "mesh": 3
    },
    {
      "name": "Group#9",
      "children": [
        10,
        11
      ]
    },
    {
      "mesh": 4
    },
    {
      "mesh": 5
    },
    {
      "children": [
        13
      ],
      "mesh": 7
    },
    {
      "mesh": 6
    },
    {
      "name": "Group396#1",
      "mesh": 8
    },
    {
      "name": "Group#9",
      "children": [
        16,
        17
      ]
    },
    {
      "mesh": 9
    },
    {
      "mesh": 10
    },
    {
      "name": "Group#13",
      "children": [
        19,
        21
      ]
    },
    {
      "children": [
        20
      ]
    },
    {
      "mesh": 11
    },
    {
      "children": [
        22,
        23
      ]
    },
    {
      "mesh": 12
    },
    {
      "mesh": 13
    }
  ],
  "materials": [
    {
      "pbrMetallicRoughness": {
        "baseColorTexture": {
          "index": 0
        },
        "metallicFactor": 0.1,
        "roughnessFactor": 0.9
      },
      "name": "Florentijn-Hofman5"
    },
    {
      "pbrMetallicRoughness": {
        "baseColorTexture": {
          "index": 1
        },
        "metallicFactor": 0.1,
        "roughnessFactor": 0.9
      },
      "name": "Florentijn-Hofman5#1"
    }
  ],
  "images": [
    {
      "bufferView": 0,
      "mimeType": "image/jpeg"
    },
    {
      "bufferView": 1,
      "mimeType": "image/jpeg"
    }
  ],
  "textures": [
    {
      "source": 0,
      "sampler": 0
    },
    {
      "source": 1,
      "sampler": 0
    }
  ],
  "meshes": [
    {
      "primitives": [
        {
          "attributes": {
            "POSITION": 0,
            "NORMAL": 1,
            "TEXCOORD_0": 2
          },
          "indices": 3,
          "mode": 4,
          "material": 0
        }
      ]
    },
    {
      "primitives": [
        {
          "attributes": {
            "POSITION": 0,
            "NORMAL": 1,
            "TEXCOORD_0": 2
          },
          "indices": 4,
          "mode": 4,
          "material": 0
        }
      ]
    },
    {
      "primitives": [
        {
          "attributes": {
            "POSITION": 0,
            "NORMAL": 1,
            "TEXCOORD_0": 2
          },
          "indices": 5,
          "mode": 4,
          "material": 0
        }
      ]
    },
    {
      "primitives": [
        {
          "attributes": {
            "POSITION": 0,
            "NORMAL": 1,
            "TEXCOORD_0": 2
          },
          "indices": 6,
          "mode": 4,
          "material": 1
        }
      ]
    },
    {
      "primitives": [
        {
          "attributes": {
            "POSITION": 0,
            "NORMAL": 1,
            "TEXCOORD_0": 2
          },
          "indices": 7,
          "mode": 4,
          "material": 0
        }
      ]
    },
    {
      "primitives": [
        {
          "attributes": {
            "POSITION": 0,
            "NORMAL": 1,
            "TEXCOORD_0": 2
          },
          "indices": 8,
          "mode": 4,
          "material": 0
        }
      ]
    },
    {
      "primitives": [
        {
          "attributes": {
            "POSITION": 0,
            "NORMAL": 1,
            "TEXCOORD_0": 2
          },
          "indices": 9,
          "mode": 4,
          "material": 0
        }
      ]
    },
    {
      "primitives": [
        {
          "attributes": {
            "POSITION": 0,
            "NORMAL": 1,
            "TEXCOORD_0": 2
          },
          "indices": 10,
          "mode": 4,
          "material": 0
        }
      ]
    },
    {
      "primitives": [
        {
          "attributes": {
            "POSITION": 0,
            "NORMAL": 1,
            "TEXCOORD_0": 2
          },
          "indices": 11,
          "mode": 4,
          "material": 1
        }
      ]
    },
    {
      "primitives": [
        {
          "attributes": {
            "POSITION": 0,
            "NORMAL": 1,
            "TEXCOORD_0": 2
          },
          "indices": 12,
          "mode": 4,
          "material": 0
        }
      ]
    },
    {
      "primitives": [
        {
          "attributes": {
            "POSITION": 0,
            "NORMAL": 1,
            "TEXCOORD_0": 2
          },
          "indices": 13,
          "mode": 4,
          "material": 0
        }
      ]
    },
    {
      "primitives": [
        {
          "attributes": {
            "POSITION": 0,
            "NORMAL": 1,
            "TEXCOORD_0": 2
          },
          "indices": 14,
          "mode": 4,
          "material": 0
        }
      ]
    },
    {
      "primitives": [
        {
          "attributes": {
            "POSITION": 0,
            "NORMAL": 1,
            "TEXCOORD_0": 2
          },
          "indices": 15,
          "mode": 4,
          "material": 0
        }
      ]
    },
    {
      "primitives": [
        {
          "attributes": {
            "POSITION": 0,
            "NORMAL": 1,
            "TEXCOORD_0": 2
          },
          "indices": 16,
          "mode": 4,
          "material": 0
        }
      ]
    }
  ],
  "accessors": [
    {
      "bufferView": 2,
      "componentType": 5126,
      "count": 2480,
      "type": "VEC3",
      "min": [
        -0.05143820200760835,
        -0.04599999999999999,
        -0.05299999999999967
      ],
      "max": [
        0.052000000000000074,
        0.06134265021116827,
        0.060654886569510395
      ]
    },
    {
      "bufferView": 3,
      "componentType": 5126,
      "count": 2480,
      "type": "VEC3",
      "min": [
        -0.9781869454435301,
        -0.9994359646768142,
        -0.9994620138285721
      ],
      "max": [
        0.998719249687065,
        0.999387572513397,
        0.9988443674266497
      ]
    },
    {
      "bufferView": 4,
      "componentType": 5126,
      "count": 2480,
      "type": "VEC2",
      "min": [
        -0.3760983547486605,
        -400.41127206110207
      ],
      "max": [
        395.1229045478256,
        1416.672716572218
      ]
    },
    {
      "bufferView": 5,
      "componentType": 5123,
      "count": 255,
      "type": "SCALAR"
    },
    {
      "bufferView": 5,
      "componentType": 5123,
      "count": 96,
      "type": "SCALAR",
      "byteOffset": 510
    },
    {
      "bufferView": 5,
      "componentType": 5123,
      "count": 90,
      "type": "SCALAR",
      "byteOffset": 702
    },
    {
      "bufferView": 5,
      "componentType": 5123,
      "count": 576,
      "type": "SCALAR",
      "byteOffset": 882
    },
    {
      "bufferView": 5,
      "componentType": 5123,
      "count": 504,
      "type": "SCALAR",
      "byteOffset": 2034
    },
    {
      "bufferView": 5,
      "componentType": 5123,
      "count": 360,
      "type": "SCALAR",
      "byteOffset": 3042
    },
    {
      "bufferView": 5,
      "componentType": 5123,
      "count": 126,
      "type": "SCALAR",
      "byteOffset": 3762
    },
    {
      "bufferView": 5,
      "componentType": 5123,
      "count": 522,
      "type": "SCALAR",
      "byteOffset": 4014
    },
    {
      "bufferView": 5,
      "componentType": 5123,
      "count": 576,
      "type": "SCALAR",
      "byteOffset": 5058
    },
    {
      "bufferView": 5,
      "componentType": 5123,
      "count": 504,
      "type": "SCALAR",
      "byteOffset": 6210
    },
    {
      "bufferView": 5,
      "componentType": 5123,
      "count": 360,
      "type": "SCALAR",
      "byteOffset": 7218
    },
    {
      "bufferView": 5,
      "componentType": 5123,
      "count": 255,
      "type": "SCALAR",
      "byteOffset": 7938
    },
    {
      "bufferView": 5,
      "componentType": 5123,
      "count": 96,
      "type": "SCALAR",
      "byteOffset": 8448
    },
    {
      "bufferView": 5,
      "componentType": 5123,
      "count": 90,
      "type": "SCALAR",
      "byteOffset": 8640
    }
  ],
  "bufferViews": [
    {
      "buffer": 0,
      "byteLength": 42090
    },
    {
      "buffer": 0,
      "byteOffset": 42090,
      "byteLength": 655
    },
    {
      "buffer": 0,
      "byteOffset": 42756,
      "byteLength": 29760,
      "target": 34962,
      "byteStride": 12
    },
    {
      "buffer": 0,
      "byteOffset": 72516,
      "byteLength": 29760,
      "target": 34962,
      "byteStride": 12
    },
    {
      "buffer": 0,
      "byteOffset": 102280,
      "byteLength": 19840,
      "target": 34962,
      "byteStride": 8
    },
    {
      "buffer": 0,
      "byteOffset": 122120,
      "byteLength": 8820,
      "target": 34963
    }
  ],
  "buffers": [
    {
      "uri": "data:application/octet-stream;base64,",
      "byteLength": 130940
    }
  ]
}