{
  "asset": {
    "version": "2.0",
    "generator": "Sketchup glTF Exporter v1.2.6 by Centaur"
  },
  "scene": 0,
  "scenes": [
    {
      "nodes": [
        0
      ]
    }
  ],
  "samplers": [
    {
    }
  ],
  "nodes": [
    {
      "name": "root",
      "children": [
        1
      ]
    },
    {
      "mesh": 0
    }
  ],
  "materials": [
    {
      "pbrMetallicRoughness": {
        "baseColorFactor": [
          0.0385,
          0.0385,
          0.0385,
          1.0
        ],
        "metallicFactor": 0.1,
        "roughnessFactor": 0.9
      },
      "name": "Color M07"
    },
    {
      "pbrMetallicRoughness": {
        "baseColorFactor": [
          0.4098,
          0.4098,
          0.4098,
          1.0
        ],
        "metallicFactor": 0.1,
        "roughnessFactor": 0.9
      },
      "name": "[Color_003]1"
    },
    {
      "pbrMetallicRoughness": {
        "baseColorFactor": [
          0.022,
          0.022,
          0.022,
          1.0
        ],
        "metallicFactor": 0.1,
        "roughnessFactor": 0.9
      },
      "name": "[Color_008]1"
    },
    {
      "pbrMetallicRoughness": {
        "baseColorFactor": [
          0.1332,
          0.0,
          0.0,
          1.0
        ],
        "metallicFactor": 0.1,
        "roughnessFactor": 0.9
      },
      "name": "Color A08"
    },
    {
      "pbrMetallicRoughness": {
        "baseColorFactor": [
          0.0046,
          0.0046,
          0.0046,
          1.0
        ],
        "metallicFactor": 0.1,
        "roughnessFactor": 0.9
      },
      "name": "Color_007"
    }
  ],
  "meshes": [
    {
      "primitives": [
        {
          "attributes": {
            "POSITION": 0,
            "NORMAL": 1
          },
          "indices": 2,
          "mode": 4,
          "material": 0
        },
        {
          "attributes": {
            "POSITION": 0,
            "NORMAL": 1
          },
          "indices": 3,
          "mode": 4,
          "material": 1
        },
        {
          "attributes": {
            "POSITION": 0,
            "NORMAL": 1
          },
          "indices": 4,
          "mode": 4,
          "material": 2
        },
        {
          "attributes": {
            "POSITION": 0,
            "NORMAL": 1
          },
          "indices": 5,
          "mode": 4,
          "material": 3
        },
        {
          "attributes": {
            "POSITION": 0,
            "NORMAL": 1
          },
          "indices": 6,
          "mode": 4,
          "material": 4
        }
      ]
    }
  ],
  "accessors": [
    {
      "bufferView": 0,
      "componentType": 5126,
      "count": 6077,
      "type": "VEC3",
      "min": [
        -0.03740603010102834,
        -0.151,
        -0.12279291535643688
      ],
      "max": [
        0.02799999999999985,
        0.24778700983495291,
        0.123
      ]
    },
    {
      "bufferView": 1,
      "componentType": 5126,
      "count": 6077,
      "type": "VEC3",
      "min": [
        -1.0,
        -0.9999624727791205,
        -0.9999624727791202
      ],
      "max": [
        1.0,
        0.9999624727791205,
        0.9999624727791194
      ]
    },
    {
      "bufferView": 2,
      "componentType": 5123,
      "count": 3867,
      "type": "SCALAR"
    },
    {
      "bufferView": 2,
      "componentType": 5123,
      "count": 4584,
      "type": "SCALAR",
      "byteOffset": 7734
    },
    {
      "bufferView": 2,
      "componentType": 5123,
      "count": 12558,
      "type": "SCALAR",
      "byteOffset": 16902
    },
    {
      "bufferView": 2,
      "componentType": 5123,
      "count": 1257,
      "type": "SCALAR",
      "byteOffset": 42018
    },
    {
      "bufferView": 2,
      "componentType": 5123,
      "count": 4140,
      "type": "SCALAR",
      "byteOffset": 44532
    }
  ],
  "bufferViews": [
    {
      "buffer": 0,
      "byteLength": 72924,
      "target": 34962,
      "byteStride": 12
    },
    {
      "buffer": 0,
      "byteOffset": 72924,
      "byteLength": 72924,
      "target": 34962,
      "byteStride": 12
    },
    {
      "buffer": 0,
      "byteOffset": 145848,
      "byteLength": 52812,
      "target": 34963
    }
  ],
  "buffers": [
    {
      "uri": "data:application/octet-stream;base64,",
      "byteLength": 198660
    }
  ]
}