{
  "asset": {
    "version": "2.0",
    "generator": "Sketchup glTF Exporter v1.2.6 by Centaur"
  },
  "scene": 0,
  "scenes": [
    {
      "nodes": [
        0
      ]
    }
  ],
  "samplers": [
    {
    }
  ],
  "nodes": [
    {
      "name": "root",
      "children": [
        1
      ]
    },
    {
      "mesh": 0
    }
  ],
  "materials": [
    {
      "pbrMetallicRoughness": {
        "baseColorTexture": {
          "index": 0
        },
        "metallicFactor": 0.1,
        "roughnessFactor": 0.9
      },
      "name": "Wood Veneer 01",
      "doubleSided": true
    },
    {
      "pbrMetallicRoughness": {
        "baseColorFactor": [
          0.2195,
          0.0478,
          0.0,
          1.0
        ],
        "metallicFactor": 0.1,
        "roughnessFactor": 0.9
      },
      "name": "Material7",
      "doubleSided": true
    },
    {
      "pbrMetallicRoughness": {
        "baseColorTexture": {
          "index": 1
        },
        "roughnessFactor": 0.1
      },
      "name": "[Metal_Corrogated_Shiny]3",
      "doubleSided": true
    }
  ],
  "images": [
    {
      "bufferView": 0,
      "mimeType": "image/jpeg"
    },
    {
      "bufferView": 1,
      "mimeType": "image/jpeg"
    }
  ],
  "textures": [
    {
      "source": 0,
      "sampler": 0
    },
    {
      "source": 1,
      "sampler": 0
    }
  ],
  "meshes": [
    {
      "primitives": [
        {
          "attributes": {
            "POSITION": 2,
            "NORMAL": 3,
            "TEXCOORD_0": 4
          },
          "indices": 5,
          "mode": 4,
          "material": 0
        },
        {
          "attributes": {
            "POSITION": 0,
            "NORMAL": 1
          },
          "indices": 6,
          "mode": 4,
          "material": 1
        },
        {
          "attributes": {
            "POSITION": 2,
            "NORMAL": 3,
            "TEXCOORD_0": 4
          },
          "indices": 7,
          "mode": 4,
          "material": 2
        }
      ]
    }
  ],
  "accessors": [
    {
      "bufferView": 2,
      "componentType": 5126,
      "count": 72,
      "type": "VEC3",
      "min": [
        -0.007887500001710623,
        -0.007452329595042231,
        -0.008271523792339513
      ],
      "max": [
        0.008020570798289373,
        -0.004503040979508516,
        0.008373032143999894
      ]
    },
    {
      "bufferView": 3,
      "componentType": 5126,
      "count": 72,
      "type": "VEC3",
      "min": [
        -0.7448858705527781,
        -1.0,
        -0.747598224875499
      ],
      "max": [
        0.744885870491024,
        -0.66415125849689,
        0.7475982248754668
      ]
    },
    {
      "bufferView": 4,
      "componentType": 5126,
      "count": 2469,
      "type": "VEC3",
      "min": [
        -0.01900000000000001,
        -0.11755910455495486,
        -0.019898491648339442
      ],
      "max": [
        0.019133070799999947,
        0.066,
        0.020000000000000007
      ]
    },
    {
      "bufferView": 5,
      "componentType": 5126,
      "count": 2469,
      "type": "VEC3",
      "min": [
        -1.0,
        -1.0,
        -1.0
      ],
      "max": [
        1.0,
        0.9987502843950544,
        1.0
      ]
    },
    {
      "bufferView": 6,
      "componentType": 5126,
      "count": 2469,
      "type": "VEC2",
      "min": [
        -14.491752507944492,
        -13.754315161343728
      ],
      "max": [
        14.499141173597172,
        14.890246762841498
      ]
    },
    {
      "bufferView": 8,
      "componentType": 5123,
      "count": 3537,
      "type": "SCALAR"
    },
    {
      "bufferView": 7,
      "componentType": 5121,
      "count": 210,
      "type": "SCALAR"
    },
    {
      "bufferView": 8,
      "componentType": 5123,
      "count": 234,
      "type": "SCALAR",
      "byteOffset": 7074
    }
  ],
  "bufferViews": [
    {
      "buffer": 0,
      "byteLength": 38377
    },
    {
      "buffer": 0,
      "byteOffset": 38377,
      "byteLength": 1806
    },
    {
      "buffer": 0,
      "byteOffset": 40188,
      "byteLength": 864,
      "target": 34962,
      "byteStride": 12
    },
    {
      "buffer": 0,
      "byteOffset": 41052,
      "byteLength": 864,
      "target": 34962,
      "byteStride": 12
    },
    {
      "buffer": 0,
      "byteOffset": 41916,
      "byteLength": 29628,
      "target": 34962,
      "byteStride": 12
    },
    {
      "buffer": 0,
      "byteOffset": 71544,
      "byteLength": 29628,
      "target": 34962,
      "byteStride": 12
    },
    {
      "buffer": 0,
      "byteOffset": 101176,
      "byteLength": 19752,
      "target": 34962,
      "byteStride": 8
    },
    {
      "buffer": 0,
      "byteOffset": 120928,
      "byteLength": 210,
      "target": 34963
    },
    {
      "buffer": 0,
      "byteOffset": 121138,
      "byteLength": 7542,
      "target": 34963
    }
  ],
  "buffers": [
    {
      "uri": "data:application/octet-stream;base64,",
      "byteLength": 128680
    }
  ]
}