{
  "asset": {
    "version": "2.0",
    "generator": "Sketchup glTF Exporter v1.2.6 by Centaur"
  },
  "scene": 0,
  "scenes": [
    {
      "nodes": [
        0
      ]
    }
  ],
  "samplers": [
    {
    }
  ],
  "nodes": [
    {
      "name": "root",
      "children": [
        1
      ]
    },
    {
      "children": [
        2
      ],
      "mesh": 1
    },
    {
      "mesh": 0
    }
  ],
  "materials": [
    {
      "pbrMetallicRoughness": {
        "baseColorFactor": [
          1.0,
          1.0,
          1.0,
          1.0
        ],
        "metallicFactor": 0.1,
        "roughnessFactor": 0.9
      },
      "name": "Color M00"
    },
    {
      "pbrMetallicRoughness": {
        "baseColorFactor": [
          0.8751,
          0.7969,
          0.2674,
          1.0
        ],
        "metallicFactor": 0.1,
        "roughnessFactor": 0.9
      },
      "name": "0047_Khaki",
      "doubleSided": true
    },
    {
      "pbrMetallicRoughness": {
        "baseColorFactor": [
          0.949,
          0.325,
          0.325,
          1.0
        ],
        "metallicFactor": 0.1,
        "roughnessFactor": 0.9
      },
      "name": "0006_Pink"
    },
    {
      "pbrMetallicRoughness": {
        "baseColorFactor": [
          0.687,
          1.0,
          1.0,
          0.5
        ],
        "metallicFactor": 0.1,
        "roughnessFactor": 0.9
      },
      "name": "[Translucent_Glass_Gray]2",
      "doubleSided": true,
      "alphaMode": "BLEND"
    }
  ],
  "meshes": [
    {
      "primitives": [
        {
          "attributes": {
            "POSITION": 0,
            "NORMAL": 1
          },
          "indices": 2,
          "mode": 4,
          "material": 1
        },
        {
          "attributes": {
            "POSITION": 0,
            "NORMAL": 1
          },
          "indices": 3,
          "mode": 4,
          "material": 2
        }
      ]
    },
    {
      "primitives": [
        {
          "attributes": {
            "POSITION": 0,
            "NORMAL": 1
          },
          "indices": 4,
          "mode": 4,
          "material": 0
        },
        {
          "attributes": {
            "POSITION": 0,
            "NORMAL": 1
          },
          "indices": 5,
          "mode": 4,
          "material": 3
        }
      ]
    }
  ],
  "accessors": [
    {
      "bufferView": 0,
      "componentType": 5126,
      "count": 750,
      "type": "VEC3",
      "min": [
        -0.055621050395125576,
        -0.10599999999999998,
        -0.05562105039512449
      ],
      "max": [
        0.05562105039512115,
        0.15986164570378553,
        0.0556210503951245
      ]
    },
    {
      "bufferView": 1,
      "componentType": 5126,
      "count": 750,
      "type": "VEC3",
      "min": [
        -0.9922255797462756,
        -1.0,
        -0.9924298119024421
      ],
      "max": [
        0.9922255797461854,
        1.0,
        0.9999999999665972
      ]
    },
    {
      "bufferView": 2,
      "componentType": 5123,
      "count": 354,
      "type": "SCALAR"
    },
    {
      "bufferView": 2,
      "componentType": 5123,
      "count": 1260,
      "type": "SCALAR",
      "byteOffset": 708
    },
    {
      "bufferView": 2,
      "componentType": 5123,
      "count": 984,
      "type": "SCALAR",
      "byteOffset": 3228
    },
    {
      "bufferView": 2,
      "componentType": 5123,
      "count": 1218,
      "type": "SCALAR",
      "byteOffset": 5196
    }
  ],
  "bufferViews": [
    {
      "buffer": 0,
      "byteLength": 9000,
      "target": 34962,
      "byteStride": 12
    },
    {
      "buffer": 0,
      "byteOffset": 9000,
      "byteLength": 9000,
      "target": 34962,
      "byteStride": 12
    },
    {
      "buffer": 0,
      "byteOffset": 18000,
      "byteLength": 7632,
      "target": 34963
    }
  ],
  "buffers": [
    {
      "uri": "data:application/octet-stream;base64,",
      "byteLength": 25632
    }
  ]
}