{
  "asset": {
    "version": "2.0",
    "generator": "Sketchup glTF Exporter v1.2.6 by Centaur"
  },
  "scene": 0,
  "scenes": [
    {
      "nodes": [
        0
      ]
    }
  ],
  "samplers": [
    {
    }
  ],
  "nodes": [
    {
      "name": "root",
      "children": [
        1
      ]
    },
    {
      "name": "Component#4",
      "children": [
        2
      ],
      "mesh": 5
    },
    {
      "children": [
        3,
        5,
        6
      ],
      "mesh": 4
    },
    {
      "children": [
        4
      ],
      "mesh": 1
    },
    {
      "mesh": 0
    },
    {
      "name": "Insect-a-clear",
      "mesh": 2
    },
    {
      "name": "Threaded Screw",
      "children": [
        7
      ]
    },
    {
      "name": "Group#13",
      "children": [
        8
      ]
    },
    {
      "mesh": 3
    }
  ],
  "materials": [
    {
      "pbrMetallicRoughness": {
        "baseColorFactor": [
          0.7969,
          0.7969,
          0.7969,
          1.0
        ],
        "metallicFactor": 0.1,
        "roughnessFactor": 0.9
      },
      "name": "White Plastic"
    },
    {
      "pbrMetallicRoughness": {
        "baseColorFactor": [
          1.0,
          0.0,
          0.0,
          1.0
        ],
        "metallicFactor": 0.1,
        "roughnessFactor": 0.9
      },
      "name": "0020_Red"
    },
    {
      "pbrMetallicRoughness": {
        "baseColorFactor": [
          0.0,
          0.0,
          0.0,
          1.0
        ],
        "roughnessFactor": 0.1
      },
      "name": "stainless-steel"
    },
    {
      "pbrMetallicRoughness": {
        "baseColorFactor": [
          0.2176,
          0.2176,
          0.2176,
          1.0
        ],
        "metallicFactor": 0.1,
        "roughnessFactor": 0.9
      },
      "name": "default material",
      "doubleSided": true
    },
    {
      "pbrMetallicRoughness": {
        "baseColorFactor": [
          0.0,
          0.0,
          0.6187,
          1.0
        ],
        "metallicFactor": 0.1,
        "roughnessFactor": 0.9
      },
      "name": "0104_MediumBlue"
    },
    {
      "pbrMetallicRoughness": {
        "baseColorFactor": [
          0.0008,
          0.0008,
          0.0008,
          1.0
        ],
        "metallicFactor": 0.1,
        "roughnessFactor": 0.9
      },
      "name": "Plastic_Black"
    }
  ],
  "meshes": [
    {
      "primitives": [
        {
          "attributes": {
            "POSITION": 0,
            "NORMAL": 1
          },
          "indices": 2,
          "mode": 4,
          "material": 2
        }
      ]
    },
    {
      "primitives": [
        {
          "attributes": {
            "POSITION": 0,
            "NORMAL": 1
          },
          "indices": 3,
          "mode": 4,
          "material": 2
        },
        {
          "attributes": {
            "POSITION": 0,
            "NORMAL": 1
          },
          "indices": 4,
          "mode": 4,
          "material": 3
        }
      ]
    },
    {
      "primitives": [
        {
          "attributes": {
            "POSITION": 0,
            "NORMAL": 1
          },
          "indices": 5,
          "mode": 4,
          "material": 4
        }
      ]
    },
    {
      "primitives": [
        {
          "attributes": {
            "POSITION": 0,
            "NORMAL": 1
          },
          "indices": 6,
          "mode": 4,
          "material": 2
        }
      ]
    },
    {
      "primitives": [
        {
          "attributes": {
            "POSITION": 0,
            "NORMAL": 1
          },
          "indices": 7,
          "mode": 4,
          "material": 0
        },
        {
          "attributes": {
            "POSITION": 0,
            "NORMAL": 1
          },
          "indices": 8,
          "mode": 4,
          "material": 1
        },
        {
          "attributes": {
            "POSITION": 0,
            "NORMAL": 1
          },
          "indices": 9,
          "mode": 4,
          "material": 2
        },
        {
          "attributes": {
            "POSITION": 0,
            "NORMAL": 1
          },
          "indices": 10,
          "mode": 4,
          "material": 5
        }
      ]
    },
    {
      "primitives": [
        {
          "attributes": {
            "POSITION": 0,
            "NORMAL": 1
          },
          "indices": 11,
          "mode": 4,
          "material": 3
        }
      ]
    }
  ],
  "accessors": [
    {
      "bufferView": 0,
      "componentType": 5126,
      "count": 51302,
      "type": "VEC3",
      "min": [
        -0.15759203054109966,
        -0.16034393080150727,
        -0.04476983574046105
      ],
      "max": [
        0.15162517321364744,
        0.15958106919849288,
        0.04649335277404465
      ]
    },
    {
      "bufferView": 1,
      "componentType": 5126,
      "count": 51302,
      "type": "VEC3",
      "min": [
        -1.0,
        -1.0,
        -1.0
      ],
      "max": [
        1.0,
        1.0,
        1.0
      ]
    },
    {
      "bufferView": 2,
      "componentType": 5123,
      "count": 162,
      "type": "SCALAR"
    },
    {
      "bufferView": 2,
      "componentType": 5123,
      "count": 30,
      "type": "SCALAR",
      "byteOffset": 324
    },
    {
      "bufferView": 2,
      "componentType": 5123,
      "count": 6,
      "type": "SCALAR",
      "byteOffset": 384
    },
    {
      "bufferView": 2,
      "componentType": 5123,
      "count": 6792,
      "type": "SCALAR",
      "byteOffset": 396
    },
    {
      "bufferView": 2,
      "componentType": 5123,
      "count": 1950,
      "type": "SCALAR",
      "byteOffset": 13980
    },
    {
      "bufferView": 2,
      "componentType": 5123,
      "count": 145164,
      "type": "SCALAR",
      "byteOffset": 17880
    },
    {
      "bufferView": 2,
      "componentType": 5123,
      "count": 30,
      "type": "SCALAR",
      "byteOffset": 308208
    },
    {
      "bufferView": 2,
      "componentType": 5123,
      "count": 477,
      "type": "SCALAR",
      "byteOffset": 308268
    },
    {
      "bufferView": 2,
      "componentType": 5123,
      "count": 54,
      "type": "SCALAR",
      "byteOffset": 309222
    },
    {
      "bufferView": 2,
      "componentType": 5123,
      "count": 3456,
      "type": "SCALAR",
      "byteOffset": 309330
    }
  ],
  "bufferViews": [
    {
      "buffer": 0,
      "byteLength": 615624,
      "target": 34962,
      "byteStride": 12
    },
    {
      "buffer": 0,
      "byteOffset": 615624,
      "byteLength": 615624,
      "target": 34962,
      "byteStride": 12
    },
    {
      "buffer": 0,
      "byteOffset": 1231248,
      "byteLength": 316242,
      "target": 34963
    }
  ],
  "buffers": [
    {
      "uri": "data:application/octet-stream;base64,",
      "byteLength": 1547490
    }
  ]
}