{
  "asset": {
    "version": "2.0",
    "generator": "Sketchup glTF Exporter v1.2.6 by Centaur"
  },
  "scene": 0,
  "scenes": [
    {
      "nodes": [
        0
      ]
    }
  ],
  "samplers": [
    {
    }
  ],
  "nodes": [
    {
      "name": "root",
      "children": [
        1
      ]
    },
    {
      "name": "Bread and Butter",
      "mesh": 0
    }
  ],
  "materials": [
    {
      "pbrMetallicRoughness": {
        "baseColorFactor": [
          0.0,
          0.0,
          0.0,
          1.0
        ],
        "metallicFactor": 0.1,
        "roughnessFactor": 0.9
      },
      "name": "Color M09",
      "doubleSided": true
    },
    {
      "pbrMetallicRoughness": {
        "baseColorTexture": {
          "index": 0
        },
        "metallicFactor": 0.1,
        "roughnessFactor": 0.9
      },
      "name": "Granite Dark Gray",
      "doubleSided": true
    }
  ],
  "images": [
    {
      "bufferView": 0,
      "mimeType": "image/jpeg"
    }
  ],
  "textures": [
    {
      "source": 0,
      "sampler": 0
    }
  ],
  "meshes": [
    {
      "primitives": [
        {
          "attributes": {
            "POSITION": 0,
            "NORMAL": 1
          },
          "indices": 5,
          "mode": 4,
          "material": 0
        },
        {
          "attributes": {
            "POSITION": 2,
            "NORMAL": 3,
            "TEXCOORD_0": 4
          },
          "indices": 6,
          "mode": 4,
          "material": 1
        }
      ]
    }
  ],
  "accessors": [
    {
      "bufferView": 1,
      "componentType": 5126,
      "count": 305,
      "type": "VEC3",
      "min": [
        -0.056999999999999,
        -0.05700408087061782,
        -0.009024687661459974
      ],
      "max": [
        0.056929634416385044,
        0.056621333422305214,
        0.009480242549154135
      ]
    },
    {
      "bufferView": 2,
      "componentType": 5126,
      "count": 305,
      "type": "VEC3",
      "min": [
        -0.9190943975161002,
        -0.9300764309161388,
        -0.9999999756189338
      ],
      "max": [
        0.9346734066871193,
        0.936542323253186,
        0.9999999756189338
      ]
    },
    {
      "bufferView": 3,
      "componentType": 5126,
      "count": 580,
      "type": "VEC3",
      "min": [
        -0.055944803198561134,
        -0.05485594339919904,
        -0.009024485810900894
      ],
      "max": [
        0.055877762757092594,
        0.055571790809172086,
        0.009480011113295921
      ]
    },
    {
      "bufferView": 4,
      "componentType": 5126,
      "count": 580,
      "type": "VEC3",
      "min": [
        -1.0,
        -0.9996483356068326,
        -0.09174194868937786
      ],
      "max": [
        0.9999589076525978,
        0.9974613951855404,
        0.9999999756189342
      ]
    },
    {
      "bufferView": 5,
      "componentType": 5126,
      "count": 580,
      "type": "VEC2",
      "min": [
        -2.064265729760008,
        -0.8852088013590618
      ],
      "max": [
        2.440244465213948,
        1.2605598480810871
      ]
    },
    {
      "bufferView": 6,
      "componentType": 5123,
      "count": 1371,
      "type": "SCALAR"
    },
    {
      "bufferView": 7,
      "componentType": 5123,
      "count": 1062,
      "type": "SCALAR"
    }
  ],
  "bufferViews": [
    {
      "buffer": 0,
      "byteLength": 23914
    },
    {
      "buffer": 0,
      "byteOffset": 23916,
      "byteLength": 3660,
      "target": 34962,
      "byteStride": 12
    },
    {
      "buffer": 0,
      "byteOffset": 27576,
      "byteLength": 3660,
      "target": 34962,
      "byteStride": 12
    },
    {
      "buffer": 0,
      "byteOffset": 31236,
      "byteLength": 6960,
      "target": 34962,
      "byteStride": 12
    },
    {
      "buffer": 0,
      "byteOffset": 38196,
      "byteLength": 6960,
      "target": 34962,
      "byteStride": 12
    },
    {
      "buffer": 0,
      "byteOffset": 45160,
      "byteLength": 4640,
      "target": 34962,
      "byteStride": 8
    },
    {
      "buffer": 0,
      "byteOffset": 49800,
      "byteLength": 2742,
      "target": 34963
    },
    {
      "buffer": 0,
      "byteOffset": 52542,
      "byteLength": 2124,
      "target": 34963
    }
  ],
  "buffers": [
    {
      "uri": "data:application/octet-stream;base64,",
      "byteLength": 54666
    }
  ]
}